G04 Layer_Physical_Order=1*
G04 Layer_Color=255*
%FSLAX25Y25*%
%MOIN*%
G70*
G01*
G75*
%ADD10O,0.00787X0.02756*%
%ADD11R,0.09449X0.02953*%
G04:AMPARAMS|DCode=12|XSize=22mil|YSize=24mil|CornerRadius=4.4mil|HoleSize=0mil|Usage=FLASHONLY|Rotation=90.000|XOffset=0mil|YOffset=0mil|HoleType=Round|Shape=RoundedRectangle|*
%AMROUNDEDRECTD12*
21,1,0.02200,0.01520,0,0,90.0*
21,1,0.01320,0.02400,0,0,90.0*
1,1,0.00880,0.00760,0.00660*
1,1,0.00880,0.00760,-0.00660*
1,1,0.00880,-0.00760,-0.00660*
1,1,0.00880,-0.00760,0.00660*
%
%ADD12ROUNDEDRECTD12*%
%ADD13R,0.11024X0.02953*%
%ADD14C,0.05000*%
G04:AMPARAMS|DCode=15|XSize=22mil|YSize=24mil|CornerRadius=4.4mil|HoleSize=0mil|Usage=FLASHONLY|Rotation=0.000|XOffset=0mil|YOffset=0mil|HoleType=Round|Shape=RoundedRectangle|*
%AMROUNDEDRECTD15*
21,1,0.02200,0.01520,0,0,0.0*
21,1,0.01320,0.02400,0,0,0.0*
1,1,0.00880,0.00660,-0.00760*
1,1,0.00880,-0.00660,-0.00760*
1,1,0.00880,-0.00660,0.00760*
1,1,0.00880,0.00660,0.00760*
%
%ADD15ROUNDEDRECTD15*%
G04:AMPARAMS|DCode=16|XSize=65mil|YSize=40mil|CornerRadius=10mil|HoleSize=0mil|Usage=FLASHONLY|Rotation=90.000|XOffset=0mil|YOffset=0mil|HoleType=Round|Shape=RoundedRectangle|*
%AMROUNDEDRECTD16*
21,1,0.06500,0.02000,0,0,90.0*
21,1,0.04500,0.04000,0,0,90.0*
1,1,0.02000,0.01000,0.02250*
1,1,0.02000,0.01000,-0.02250*
1,1,0.02000,-0.01000,-0.02250*
1,1,0.02000,-0.01000,0.02250*
%
%ADD16ROUNDEDRECTD16*%
%ADD17R,0.06890X0.12598*%
%ADD18R,0.06890X0.03937*%
%ADD19O,0.05709X0.01772*%
%ADD20O,0.05512X0.01181*%
%ADD21O,0.01181X0.05512*%
G04:AMPARAMS|DCode=22|XSize=11.81mil|YSize=35.43mil|CornerRadius=2.95mil|HoleSize=0mil|Usage=FLASHONLY|Rotation=90.000|XOffset=0mil|YOffset=0mil|HoleType=Round|Shape=RoundedRectangle|*
%AMROUNDEDRECTD22*
21,1,0.01181,0.02953,0,0,90.0*
21,1,0.00591,0.03543,0,0,90.0*
1,1,0.00591,0.01476,0.00295*
1,1,0.00591,0.01476,-0.00295*
1,1,0.00591,-0.01476,-0.00295*
1,1,0.00591,-0.01476,0.00295*
%
%ADD22ROUNDEDRECTD22*%
%ADD23R,0.01575X0.05118*%
G04:AMPARAMS|DCode=24|XSize=29.13mil|YSize=39.37mil|CornerRadius=5.83mil|HoleSize=0mil|Usage=FLASHONLY|Rotation=270.000|XOffset=0mil|YOffset=0mil|HoleType=Round|Shape=RoundedRectangle|*
%AMROUNDEDRECTD24*
21,1,0.02913,0.02772,0,0,270.0*
21,1,0.01748,0.03937,0,0,270.0*
1,1,0.01165,-0.01386,-0.00874*
1,1,0.01165,-0.01386,0.00874*
1,1,0.01165,0.01386,0.00874*
1,1,0.01165,0.01386,-0.00874*
%
%ADD24ROUNDEDRECTD24*%
%ADD25R,0.03740X0.02165*%
G04:AMPARAMS|DCode=26|XSize=29.13mil|YSize=39.37mil|CornerRadius=5.83mil|HoleSize=0mil|Usage=FLASHONLY|Rotation=180.000|XOffset=0mil|YOffset=0mil|HoleType=Round|Shape=RoundedRectangle|*
%AMROUNDEDRECTD26*
21,1,0.02913,0.02772,0,0,180.0*
21,1,0.01748,0.03937,0,0,180.0*
1,1,0.01165,-0.00874,0.01386*
1,1,0.01165,0.00874,0.01386*
1,1,0.01165,0.00874,-0.01386*
1,1,0.01165,-0.00874,-0.01386*
%
%ADD26ROUNDEDRECTD26*%
G04:AMPARAMS|DCode=27|XSize=38.58mil|YSize=31.5mil|CornerRadius=7.87mil|HoleSize=0mil|Usage=FLASHONLY|Rotation=270.000|XOffset=0mil|YOffset=0mil|HoleType=Round|Shape=RoundedRectangle|*
%AMROUNDEDRECTD27*
21,1,0.03858,0.01575,0,0,270.0*
21,1,0.02284,0.03150,0,0,270.0*
1,1,0.01575,-0.00787,-0.01142*
1,1,0.01575,-0.00787,0.01142*
1,1,0.01575,0.00787,0.01142*
1,1,0.01575,0.00787,-0.01142*
%
%ADD27ROUNDEDRECTD27*%
G04:AMPARAMS|DCode=28|XSize=24.41mil|YSize=23.23mil|CornerRadius=5.81mil|HoleSize=0mil|Usage=FLASHONLY|Rotation=0.000|XOffset=0mil|YOffset=0mil|HoleType=Round|Shape=RoundedRectangle|*
%AMROUNDEDRECTD28*
21,1,0.02441,0.01161,0,0,0.0*
21,1,0.01280,0.02323,0,0,0.0*
1,1,0.01161,0.00640,-0.00581*
1,1,0.01161,-0.00640,-0.00581*
1,1,0.01161,-0.00640,0.00581*
1,1,0.01161,0.00640,0.00581*
%
%ADD28ROUNDEDRECTD28*%
%ADD29O,0.05709X0.02362*%
%ADD30R,0.04724X0.07087*%
%ADD31R,0.07480X0.04331*%
%ADD32R,0.03150X0.06693*%
%ADD33R,0.02362X0.04331*%
G04:AMPARAMS|DCode=34|XSize=78.74mil|YSize=157.48mil|CornerRadius=19.69mil|HoleSize=0mil|Usage=FLASHONLY|Rotation=90.000|XOffset=0mil|YOffset=0mil|HoleType=Round|Shape=RoundedRectangle|*
%AMROUNDEDRECTD34*
21,1,0.07874,0.11811,0,0,90.0*
21,1,0.03937,0.15748,0,0,90.0*
1,1,0.03937,0.05906,0.01969*
1,1,0.03937,0.05906,-0.01969*
1,1,0.03937,-0.05906,-0.01969*
1,1,0.03937,-0.05906,0.01969*
%
%ADD34ROUNDEDRECTD34*%
%ADD35R,0.07480X0.07087*%
%ADD36R,0.05315X0.01575*%
%ADD37C,0.00700*%
%ADD38C,0.00900*%
%ADD39C,0.01000*%
%ADD40C,0.01500*%
%ADD41C,0.02000*%
%ADD42C,0.00800*%
%ADD43C,0.05906*%
%ADD44R,0.05906X0.05906*%
%ADD45R,0.05906X0.05906*%
%ADD46C,0.03937*%
%ADD47C,0.06000*%
%ADD48C,0.06299*%
%ADD49C,0.04100*%
%ADD50C,0.02700*%
G36*
X47000Y115000D02*
X40121Y115000D01*
Y118590D01*
X36554D01*
X36318Y119031D01*
X36431Y119200D01*
X36590Y120000D01*
X36431Y120800D01*
X35978Y121478D01*
X35300Y121931D01*
X34500Y122090D01*
X33700Y121931D01*
X33022Y121478D01*
X32569Y120800D01*
X32410Y120000D01*
X32467Y119714D01*
X32056Y119214D01*
X28500D01*
X28500Y125500D01*
X33547D01*
X34000Y125410D01*
X34453Y125500D01*
X47000D01*
Y115000D01*
D02*
G37*
G36*
X27500Y118500D02*
X32500D01*
Y113580D01*
X29000D01*
Y115000D01*
X22357D01*
Y115047D01*
X16214D01*
Y116892D01*
X22357D01*
X22386Y116897D01*
X22415Y116894D01*
X22522Y116924D01*
X22631Y116946D01*
X22655Y116962D01*
X22682Y116970D01*
X22770Y117039D01*
X22862Y117101D01*
X22878Y117125D01*
X22901Y117143D01*
X22955Y117240D01*
X23017Y117332D01*
X23022Y117361D01*
X23037Y117386D01*
X23179Y117827D01*
X23192Y117937D01*
X23214Y118046D01*
Y121557D01*
X23200Y121626D01*
Y121697D01*
X23154Y121929D01*
Y124071D01*
X23200Y124303D01*
Y124374D01*
X23214Y124443D01*
Y130777D01*
X27500D01*
Y118500D01*
D02*
G37*
G36*
X37000Y90500D02*
X30714D01*
X30714Y97500D01*
X31214Y98000D01*
X37000D01*
Y90500D01*
D02*
G37*
G36*
X22500Y124443D02*
X22440Y124142D01*
Y121858D01*
X22500Y121557D01*
Y118046D01*
X22357Y117605D01*
X15642D01*
Y117500D01*
X15500D01*
X15500Y104835D01*
X15500Y104500D01*
X15642Y104394D01*
X15956Y104394D01*
X22357D01*
Y104500D01*
X24000D01*
X24000Y98000D01*
X30000Y98000D01*
X30000Y90500D01*
X24000Y90500D01*
Y92000D01*
X2723Y92000D01*
Y130777D01*
X22500D01*
Y124443D01*
D02*
G37*
G36*
X234500Y86500D02*
X218500Y86500D01*
Y95705D01*
X234500D01*
Y86500D01*
D02*
G37*
G36*
X188500Y85500D02*
X188500Y55000D01*
X186500Y53000D01*
X182500Y53000D01*
X182500Y39000D01*
X181000Y37500D01*
X175590Y37500D01*
X175590Y37500D01*
X175431Y38300D01*
X174978Y38978D01*
X174300Y39431D01*
X173500Y39590D01*
X172700Y39431D01*
X172022Y38978D01*
X171569Y38300D01*
X171410Y37500D01*
X171410Y37500D01*
X156000Y37500D01*
X154016Y39484D01*
X154016Y58152D01*
X154478Y58344D01*
X160445Y52376D01*
Y47441D01*
X160527Y47031D01*
X160759Y46684D01*
X161859Y45584D01*
X161859Y45584D01*
X162206Y45352D01*
X162616Y45270D01*
X163175D01*
X163182Y45236D01*
X163434Y44859D01*
X163811Y44607D01*
X164256Y44519D01*
X165776D01*
X166221Y44607D01*
X166598Y44859D01*
X166850Y45236D01*
X166856Y45270D01*
X168076D01*
Y42154D01*
X176956D01*
Y47885D01*
X168076D01*
Y47412D01*
X166856D01*
X166850Y47446D01*
X166598Y47823D01*
X166221Y48075D01*
X165776Y48163D01*
X164256D01*
X163811Y48075D01*
X163434Y47823D01*
X162939Y47814D01*
X162586Y48138D01*
Y51883D01*
X163055Y52275D01*
X163315Y52237D01*
X163434Y52059D01*
X163811Y51807D01*
X164256Y51719D01*
X165776D01*
X166221Y51807D01*
X166598Y52059D01*
X166850Y52436D01*
X166856Y52470D01*
X168076D01*
Y51997D01*
X176956D01*
Y57727D01*
X168076D01*
Y54611D01*
X166856D01*
X166850Y54646D01*
X166598Y55023D01*
X166221Y55275D01*
X165776Y55363D01*
X164256D01*
X163811Y55275D01*
X163434Y55023D01*
X162991Y54979D01*
X154016Y63955D01*
Y64729D01*
X159996D01*
X160406Y64811D01*
X160753Y65043D01*
X163102Y67392D01*
X163434Y67359D01*
X163811Y67107D01*
X164256Y67019D01*
X165776D01*
X166221Y67107D01*
X166598Y67359D01*
X166850Y67736D01*
X166876Y67870D01*
X176703D01*
X177178Y67810D01*
Y59324D01*
X183302D01*
Y67810D01*
X181292D01*
X181229Y68126D01*
X180997Y68474D01*
X179773Y69698D01*
X179425Y69930D01*
X179016Y70012D01*
X166806D01*
X166598Y70323D01*
X166221Y70575D01*
X165776Y70663D01*
X164256D01*
X164086Y70630D01*
X163604Y70968D01*
X163586Y71001D01*
Y72236D01*
X163610Y72258D01*
X164086Y72457D01*
X164311Y72307D01*
X164756Y72219D01*
X166276D01*
X166721Y72307D01*
X167098Y72559D01*
X167306Y72870D01*
X169941D01*
X170351Y72952D01*
X170698Y73184D01*
X171773Y74259D01*
X172005Y74606D01*
X172086Y75016D01*
Y75072D01*
X173854D01*
Y83558D01*
X167729D01*
Y75478D01*
X167229Y75326D01*
X167098Y75523D01*
X166721Y75775D01*
X166276Y75863D01*
X164756D01*
X164311Y75775D01*
X163934Y75523D01*
X163682Y75146D01*
X163655Y75011D01*
X163516D01*
X163106Y74930D01*
X162759Y74698D01*
X162759Y74698D01*
X161759Y73698D01*
X161527Y73351D01*
X161445Y72941D01*
Y70884D01*
X158831Y68271D01*
X154386D01*
X154144Y68771D01*
X154431Y69200D01*
X154590Y70000D01*
X154495Y70481D01*
X154757Y70743D01*
X154989Y71090D01*
X155071Y71500D01*
X160000D01*
Y80547D01*
X160090Y81000D01*
X160000Y81453D01*
Y85000D01*
X161941Y86941D01*
X187059Y86941D01*
X188500Y85500D01*
D02*
G37*
G36*
X141792Y91162D02*
Y82941D01*
X141885Y82473D01*
X142151Y82076D01*
X143016Y81211D01*
Y54984D01*
X143038Y54962D01*
X142847Y54500D01*
X122682D01*
X120425Y56757D01*
X120077Y56989D01*
X119668Y57071D01*
X108500D01*
X108090Y56989D01*
X107743Y56757D01*
X107000Y56014D01*
X106500Y56221D01*
Y84687D01*
X106804Y84747D01*
X107151Y84979D01*
X108757Y86585D01*
X108989Y86932D01*
X109071Y87342D01*
X109071Y87342D01*
Y91501D01*
X141439Y91515D01*
X141792Y91162D01*
D02*
G37*
G36*
X41000Y54881D02*
X41000Y53500D01*
X46000Y48500D01*
X54312D01*
X54500Y48463D01*
X55469D01*
X55651Y48341D01*
X55924Y48286D01*
X56547D01*
X56616Y48300D01*
X56686D01*
X57000Y48362D01*
X57314Y48300D01*
X57384D01*
X57453Y48286D01*
X64500Y48286D01*
X65000Y47937D01*
Y45500D01*
X43500Y45500D01*
Y43658D01*
X43014Y43172D01*
X42478D01*
X42295Y43614D01*
X41782Y44282D01*
X41114Y44795D01*
X40335Y45118D01*
X39500Y45228D01*
X38665Y45118D01*
X37886Y44795D01*
X37218Y44282D01*
X36705Y43614D01*
X36382Y42835D01*
X36272Y42000D01*
X36382Y41165D01*
X36705Y40386D01*
X37218Y39718D01*
X37886Y39205D01*
X38665Y38882D01*
X39500Y38772D01*
X40335Y38882D01*
X41114Y39205D01*
X41782Y39718D01*
X42295Y40386D01*
X42478Y40828D01*
X43500D01*
Y39745D01*
X43282Y39702D01*
X42902Y39447D01*
X41671Y38217D01*
X41417Y37836D01*
X41328Y37387D01*
Y33000D01*
X41417Y32551D01*
X41671Y32171D01*
X42290Y31552D01*
X42670Y31298D01*
X43119Y31209D01*
X43318D01*
X43456Y30709D01*
X43240Y30386D01*
X43141Y29886D01*
Y28714D01*
X28237D01*
X28076Y29187D01*
X28139Y29235D01*
X28732Y30008D01*
X29105Y30908D01*
X29232Y31874D01*
X29105Y32840D01*
X28732Y33740D01*
X28139Y34513D01*
X27366Y35106D01*
X26673Y35393D01*
Y41022D01*
X27114Y41205D01*
X27782Y41718D01*
X28295Y42386D01*
X28618Y43165D01*
X28728Y44000D01*
X28618Y44835D01*
X28295Y45614D01*
X27782Y46282D01*
X27114Y46795D01*
X26673Y46978D01*
Y49514D01*
X32486Y55327D01*
X40590D01*
X41000Y54881D01*
D02*
G37*
G36*
X20600Y40500D02*
X3100D01*
X3100Y58500D01*
X20600D01*
X20600Y40500D01*
D02*
G37*
G36*
X65000Y44500D02*
X65000Y2723D01*
X29500D01*
Y20000D01*
X21000Y20000D01*
Y28000D01*
X43141D01*
Y27114D01*
X43240Y26613D01*
X43524Y26189D01*
X43948Y25906D01*
X44449Y25806D01*
X44500Y25755D01*
X44500Y24000D01*
X60500Y24000D01*
X60500Y40500D01*
X54000Y40500D01*
X54000Y44146D01*
X54353Y44500D01*
X65000Y44500D01*
D02*
G37*
G36*
X93500Y21500D02*
X75000D01*
Y28500D01*
X93500D01*
Y21500D01*
D02*
G37*
G36*
X118000Y21000D02*
Y9500D01*
X123500D01*
Y6000D01*
X109500D01*
Y8500D01*
X94008D01*
X94005Y8505D01*
X93773Y8659D01*
X93500Y8714D01*
X89953D01*
X89884Y8700D01*
X89814D01*
X89500Y8637D01*
X89186Y8700D01*
X89116D01*
X89047Y8714D01*
X86000D01*
Y20500D01*
X102547D01*
X103000Y20410D01*
X103453Y20500D01*
X106047D01*
X106500Y20410D01*
X106953Y20500D01*
X110036D01*
X109526Y27634D01*
X109867Y28000D01*
X118000D01*
Y21000D01*
D02*
G37*
G36*
X213000Y14046D02*
X213000Y5500D01*
X197500D01*
X197500Y14500D01*
X202676D01*
X202692Y14490D01*
X203310Y14367D01*
X207247D01*
X207866Y14490D01*
X207882Y14500D01*
X212546D01*
X213000Y14046D01*
D02*
G37*
G36*
X74492Y21000D02*
X74495Y20995D01*
X74727Y20841D01*
X75000Y20786D01*
X85000D01*
X85000Y8500D01*
X85500Y8000D01*
X89047D01*
X89500Y7910D01*
X89953Y8000D01*
X93500D01*
Y3000D01*
X82000D01*
Y7500D01*
X69714D01*
Y21000D01*
X74000D01*
X74492D01*
D02*
G37*
G36*
X47000Y102500D02*
Y89500D01*
Y72500D01*
X50000Y72500D01*
X57500D01*
Y65000D01*
X64000Y58500D01*
X71000Y58500D01*
X71000Y28000D01*
X74000Y28000D01*
Y22000D01*
X69000Y22000D01*
Y6500D01*
X73667Y6500D01*
Y2723D01*
X66000D01*
Y49000D01*
X64500D01*
Y49000D01*
X57453Y49000D01*
X57000Y49090D01*
X56547Y49000D01*
X55924D01*
Y49176D01*
X54500D01*
Y51743D01*
X56500Y53000D01*
X56500Y58000D01*
X55937D01*
X55882Y58082D01*
X55505Y58334D01*
X55060Y58422D01*
X53740D01*
X53295Y58334D01*
X52918Y58082D01*
X52863Y58000D01*
X52147D01*
X52092Y58082D01*
X51715Y58334D01*
X51270Y58422D01*
X49950D01*
X49505Y58334D01*
X49128Y58082D01*
X49074Y58000D01*
X47937D01*
X47882Y58082D01*
X47505Y58334D01*
X47060Y58422D01*
X45740D01*
X45295Y58334D01*
X44918Y58082D01*
X44863Y58000D01*
X44147D01*
X44092Y58082D01*
X43715Y58334D01*
X43270Y58422D01*
X41950D01*
X41505Y58334D01*
X41128Y58082D01*
X41074Y58000D01*
X37500D01*
Y71500D01*
X21000D01*
Y80000D01*
Y89500D01*
X38000D01*
Y102500D01*
X40500D01*
Y107000D01*
X47000D01*
Y102500D01*
D02*
G37*
%LPC*%
G36*
X125016Y87837D02*
X124319Y87745D01*
X123670Y87476D01*
X123113Y87049D01*
X122685Y86491D01*
X122416Y85842D01*
X122324Y85146D01*
X122416Y84449D01*
X122685Y83800D01*
X123113Y83242D01*
X123670Y82815D01*
X124319Y82546D01*
X125016Y82454D01*
X125712Y82546D01*
X126362Y82815D01*
X126919Y83242D01*
X127347Y83800D01*
X127616Y84449D01*
X127707Y85146D01*
X127616Y85842D01*
X127347Y86491D01*
X126919Y87049D01*
X126362Y87476D01*
X125712Y87745D01*
X125016Y87837D01*
D02*
G37*
G36*
Y63428D02*
X124319Y63336D01*
X123670Y63067D01*
X123113Y62639D01*
X122685Y62082D01*
X122416Y61433D01*
X122324Y60736D01*
X122416Y60040D01*
X122685Y59390D01*
X123113Y58833D01*
X123670Y58405D01*
X124319Y58136D01*
X125016Y58045D01*
X125712Y58136D01*
X126362Y58405D01*
X126919Y58833D01*
X127347Y59390D01*
X127616Y60040D01*
X127707Y60736D01*
X127616Y61433D01*
X127347Y62082D01*
X126919Y62639D01*
X126362Y63067D01*
X125712Y63336D01*
X125016Y63428D01*
D02*
G37*
%LPD*%
D10*
X54437Y50937D02*
D03*
X52469D02*
D03*
X50500D02*
D03*
X48531D02*
D03*
X46563D02*
D03*
Y43063D02*
D03*
X48531D02*
D03*
X50500D02*
D03*
X52469D02*
D03*
X54437D02*
D03*
D11*
X50500Y47000D02*
D03*
D12*
X152016Y55341D02*
D03*
Y51571D02*
D03*
X61000Y50900D02*
D03*
Y47130D02*
D03*
X119000Y101600D02*
D03*
Y105370D02*
D03*
X246500Y34552D02*
D03*
Y38322D02*
D03*
X270800Y34363D02*
D03*
Y38134D02*
D03*
X295300Y34363D02*
D03*
Y38134D02*
D03*
X320000Y34363D02*
D03*
Y38134D02*
D03*
X319800Y77130D02*
D03*
Y80900D02*
D03*
X270535Y76774D02*
D03*
Y80544D02*
D03*
X295335Y77033D02*
D03*
Y80803D02*
D03*
X246635Y77170D02*
D03*
Y80940D02*
D03*
X162500Y93630D02*
D03*
Y97400D02*
D03*
X153500Y93600D02*
D03*
Y97370D02*
D03*
X154000Y77370D02*
D03*
Y73600D02*
D03*
X158000Y73610D02*
D03*
Y77400D02*
D03*
X165016Y42571D02*
D03*
Y46341D02*
D03*
Y65071D02*
D03*
Y68841D02*
D03*
X165516Y77811D02*
D03*
Y74041D02*
D03*
X132000Y45390D02*
D03*
Y41600D02*
D03*
X107000Y105370D02*
D03*
Y101600D02*
D03*
X165016Y57311D02*
D03*
Y53541D02*
D03*
X227007Y43104D02*
D03*
Y39334D02*
D03*
X295500Y24134D02*
D03*
Y20344D02*
D03*
Y10034D02*
D03*
Y13823D02*
D03*
X320000Y24134D02*
D03*
Y20344D02*
D03*
Y10034D02*
D03*
Y13823D02*
D03*
X271000Y24400D02*
D03*
Y20610D02*
D03*
X270800Y10034D02*
D03*
Y13823D02*
D03*
X246500Y28134D02*
D03*
Y24344D02*
D03*
Y15834D02*
D03*
Y19623D02*
D03*
X115000Y105370D02*
D03*
Y101600D02*
D03*
X194500Y23600D02*
D03*
Y27390D02*
D03*
Y35400D02*
D03*
Y31610D02*
D03*
X246500Y116100D02*
D03*
Y119890D02*
D03*
X295500Y115600D02*
D03*
Y119390D02*
D03*
X271000Y115600D02*
D03*
Y119390D02*
D03*
X320000Y115600D02*
D03*
Y119390D02*
D03*
D13*
X53508Y96500D02*
D03*
X69492D02*
D03*
X53508Y91500D02*
D03*
X69492D02*
D03*
X53508Y86500D02*
D03*
X69492D02*
D03*
X53508Y81500D02*
D03*
X69492D02*
D03*
X53508Y76500D02*
D03*
X69492D02*
D03*
D14*
X148500Y93600D02*
D03*
X81500Y81500D02*
D03*
X172500Y94500D02*
D03*
X82500Y52661D02*
D03*
X88500Y78000D02*
D03*
X94500Y70000D02*
D03*
X80500Y14500D02*
D03*
X114000Y25000D02*
D03*
X42500Y64500D02*
D03*
X25500Y44000D02*
D03*
X39500Y42000D02*
D03*
X49500Y9500D02*
D03*
D15*
X232610Y84000D02*
D03*
X236400D02*
D03*
X83400Y5000D02*
D03*
X79630D02*
D03*
X50610Y56500D02*
D03*
X54400D02*
D03*
X42610D02*
D03*
X46400D02*
D03*
X45610Y109000D02*
D03*
X49400D02*
D03*
X45610Y113000D02*
D03*
X49400D02*
D03*
X28130Y96500D02*
D03*
X31900D02*
D03*
X28110Y92500D02*
D03*
X31900D02*
D03*
X141370Y101000D02*
D03*
X137600D02*
D03*
X79110Y87000D02*
D03*
X82900D02*
D03*
X79110Y92000D02*
D03*
X82900D02*
D03*
X79110Y97500D02*
D03*
X82900D02*
D03*
X91630Y57000D02*
D03*
X95400D02*
D03*
X143870Y45000D02*
D03*
X140100D02*
D03*
X207870Y48734D02*
D03*
X204100D02*
D03*
X28110Y100500D02*
D03*
X31900D02*
D03*
X49400Y117000D02*
D03*
X45610D02*
D03*
D16*
X55358Y36000D02*
D03*
X62642D02*
D03*
X55358Y28000D02*
D03*
X62642D02*
D03*
D17*
X114303Y14500D02*
D03*
D18*
X89697Y5445D02*
D03*
Y14500D02*
D03*
Y23555D02*
D03*
D19*
X226736Y13484D02*
D03*
Y15983D02*
D03*
Y18484D02*
D03*
Y20983D02*
D03*
Y23483D02*
D03*
Y25984D02*
D03*
Y28484D02*
D03*
Y30984D02*
D03*
Y33484D02*
D03*
Y35984D02*
D03*
X205279Y13484D02*
D03*
Y15983D02*
D03*
Y18484D02*
D03*
Y20983D02*
D03*
Y23483D02*
D03*
Y25984D02*
D03*
Y28484D02*
D03*
Y30984D02*
D03*
Y33484D02*
D03*
Y35984D02*
D03*
D20*
X147457Y58177D02*
D03*
Y60146D02*
D03*
Y62114D02*
D03*
Y64083D02*
D03*
Y66051D02*
D03*
Y68020D02*
D03*
Y69988D02*
D03*
Y71957D02*
D03*
Y73925D02*
D03*
Y75894D02*
D03*
Y77862D02*
D03*
Y79831D02*
D03*
Y81799D02*
D03*
Y83768D02*
D03*
Y85736D02*
D03*
Y87705D02*
D03*
X102575D02*
D03*
Y85736D02*
D03*
Y83768D02*
D03*
Y81799D02*
D03*
Y79831D02*
D03*
Y77862D02*
D03*
Y75894D02*
D03*
Y73925D02*
D03*
Y71957D02*
D03*
Y69988D02*
D03*
Y68020D02*
D03*
Y66051D02*
D03*
Y64083D02*
D03*
Y62114D02*
D03*
Y60146D02*
D03*
Y58177D02*
D03*
D21*
X139780Y95382D02*
D03*
X137811D02*
D03*
X135843D02*
D03*
X133874D02*
D03*
X131906D02*
D03*
X129937D02*
D03*
X127969D02*
D03*
X126000D02*
D03*
X124031D02*
D03*
X122063D02*
D03*
X120095D02*
D03*
X118126D02*
D03*
X116157D02*
D03*
X114189D02*
D03*
X112221D02*
D03*
X110252D02*
D03*
Y50500D02*
D03*
X112221D02*
D03*
X114189D02*
D03*
X116157D02*
D03*
X118126D02*
D03*
X120095D02*
D03*
X122063D02*
D03*
X124031D02*
D03*
X126000D02*
D03*
X127969D02*
D03*
X129937D02*
D03*
X131906D02*
D03*
X133874D02*
D03*
X135843D02*
D03*
X137811D02*
D03*
X139780D02*
D03*
D22*
X242635Y61512D02*
D03*
Y63481D02*
D03*
Y65449D02*
D03*
Y67418D02*
D03*
X238304Y61512D02*
D03*
Y63481D02*
D03*
Y65449D02*
D03*
Y67418D02*
D03*
X239173Y17781D02*
D03*
Y19749D02*
D03*
Y21718D02*
D03*
Y23686D02*
D03*
X234842Y17781D02*
D03*
Y19749D02*
D03*
Y21718D02*
D03*
Y23686D02*
D03*
X239173Y4781D02*
D03*
Y6749D02*
D03*
Y8718D02*
D03*
Y10686D02*
D03*
X234842Y4781D02*
D03*
Y6749D02*
D03*
Y8718D02*
D03*
Y10686D02*
D03*
X242635Y52012D02*
D03*
Y53981D02*
D03*
Y55949D02*
D03*
Y57918D02*
D03*
X238304Y52012D02*
D03*
Y53981D02*
D03*
Y55949D02*
D03*
Y57918D02*
D03*
D23*
X72000Y18350D02*
D03*
Y24650D02*
D03*
D24*
X121000Y7823D02*
D03*
Y13177D02*
D03*
D25*
X62374Y9000D02*
D03*
X71626Y12602D02*
D03*
Y5398D02*
D03*
D26*
X50677Y28500D02*
D03*
X45322D02*
D03*
X30177Y128500D02*
D03*
X24823D02*
D03*
X45322Y35500D02*
D03*
X50677D02*
D03*
D27*
X24744Y123000D02*
D03*
X30256D02*
D03*
D28*
X158000Y97291D02*
D03*
Y93709D02*
D03*
D29*
X205080Y88707D02*
D03*
Y83707D02*
D03*
Y78707D02*
D03*
Y73707D02*
D03*
Y68707D02*
D03*
Y63707D02*
D03*
Y58707D02*
D03*
Y53707D02*
D03*
X226536Y88707D02*
D03*
Y83707D02*
D03*
Y78707D02*
D03*
Y73707D02*
D03*
Y68707D02*
D03*
Y63707D02*
D03*
Y58707D02*
D03*
Y53707D02*
D03*
D30*
X180240Y63567D02*
D03*
Y79315D02*
D03*
X170791D02*
D03*
Y63567D02*
D03*
D31*
X172516Y45020D02*
D03*
Y54862D02*
D03*
D32*
X191193Y94500D02*
D03*
X177807D02*
D03*
X169807Y7000D02*
D03*
X183193D02*
D03*
D33*
X30760Y115724D02*
D03*
X34500D02*
D03*
X38240D02*
D03*
Y106276D02*
D03*
X34500D02*
D03*
X30760D02*
D03*
D34*
X11500Y49500D02*
D03*
D35*
X8468Y106472D02*
D03*
Y115528D02*
D03*
D36*
X19000Y116118D02*
D03*
Y113559D02*
D03*
Y105882D02*
D03*
Y108441D02*
D03*
Y111000D02*
D03*
D37*
X194500Y30984D02*
X205279D01*
X194500D02*
Y31844D01*
X193656Y31000D02*
X194500Y31844D01*
X192500Y31000D02*
X193656D01*
X192200Y30700D02*
X192500Y31000D01*
X135800Y30700D02*
X192200D01*
X191774Y41234D02*
X215766D01*
X192354Y39834D02*
X215187D01*
X185540Y35000D02*
X191774Y41234D01*
X143000Y35000D02*
X185540D01*
X186020Y33500D02*
X192354Y39834D01*
X140106Y33500D02*
X186020D01*
X192933Y38434D02*
X214607D01*
X186600Y32100D02*
X192933Y38434D01*
X139526Y32100D02*
X186600D01*
X258873Y10373D02*
X269400Y20900D01*
X275900D01*
X277296Y22297D01*
X265423Y14423D02*
X281000D01*
X259973Y8973D02*
X265423Y14423D01*
X246761Y8973D02*
X259973D01*
X247482Y10373D02*
X258873D01*
X171016Y75016D02*
Y79090D01*
X169941Y73941D02*
X171016Y75016D01*
X163516Y73941D02*
X169941D01*
X223016Y13484D02*
X226736D01*
X219200Y17300D02*
X223016Y13484D01*
X219200Y17300D02*
Y33840D01*
X223780Y4781D02*
X234842D01*
X223791Y6749D02*
X234842D01*
X223802Y8718D02*
X234842D01*
X209037Y23483D02*
X223802Y8718D01*
X212057Y18484D02*
X223791Y6749D01*
X212577Y15983D02*
X223780Y4781D01*
X205279Y15983D02*
X212577D01*
X205279Y18484D02*
X212057D01*
X205279Y23483D02*
X209037D01*
X223814Y10686D02*
X234842D01*
X208516Y25984D02*
X223814Y10686D01*
X205279Y25984D02*
X208516D01*
X122063Y104136D02*
X134327Y116400D01*
X122063Y95382D02*
Y104136D01*
X126000Y104114D02*
X135486Y113600D01*
X126000Y95382D02*
Y104114D01*
X134327Y116400D02*
X246200D01*
X137806Y108000D02*
X185000D01*
X133874Y104068D02*
X137806Y108000D01*
X133874Y95382D02*
Y104068D01*
X137226Y109400D02*
X185600D01*
X131905Y104079D02*
X137226Y109400D01*
X131905Y95382D02*
Y104079D01*
X136646Y110800D02*
X186180D01*
X129937Y104091D02*
X136646Y110800D01*
X129937Y95382D02*
Y104091D01*
X136066Y112200D02*
X186760D01*
X127969Y104102D02*
X136066Y112200D01*
X127969Y95382D02*
Y104102D01*
X135486Y113600D02*
X187340D01*
X134906Y115000D02*
X187920D01*
X124031Y104125D02*
X134906Y115000D01*
X124031Y95382D02*
Y104125D01*
X134442Y37183D02*
Y46558D01*
X135843Y37763D02*
Y50500D01*
Y37763D02*
X140106Y33500D01*
X134442Y37183D02*
X139526Y32100D01*
X140500Y37500D02*
X143000Y35000D01*
X86000Y54500D02*
X107000D01*
X79600Y55561D02*
X87061Y48100D01*
X102000D01*
X104100Y46000D01*
X102580Y49500D02*
X104680Y47400D01*
X107000Y54500D02*
X108500Y56000D01*
X79110Y92000D02*
X81610Y89500D01*
X199400Y70080D02*
Y81580D01*
X161000Y89500D02*
X191480D01*
X199400Y81580D01*
X198000Y69500D02*
Y81000D01*
X190900Y88100D02*
X198000Y81000D01*
X161580Y88100D02*
X190900D01*
X196500Y86500D02*
X202012Y80988D01*
X196500Y86500D02*
Y96500D01*
X201273Y83707D02*
X205080D01*
X197900Y87080D02*
X201273Y83707D01*
X197900Y87080D02*
Y97100D01*
X205053Y88734D02*
X205080Y88707D01*
X189342Y21003D02*
X205260D01*
X205279Y20983D01*
X189323D02*
X189342Y21003D01*
X184017Y20983D02*
X189323D01*
X177917Y27084D02*
X184017Y20983D01*
X246200Y116400D02*
X246500Y116100D01*
X312776Y96776D02*
X320000Y104000D01*
X268076Y99576D02*
X271000Y102500D01*
X291676Y98176D02*
X295500Y102000D01*
X169307Y7500D02*
X169807Y7000D01*
X166000Y7500D02*
X169307D01*
X126000Y34957D02*
X129457Y31500D01*
X129368Y37132D02*
X135800Y30700D01*
X129368Y37132D02*
Y46294D01*
X129937Y46862D01*
X127969Y36552D02*
X136037Y28484D01*
X127969Y36552D02*
Y50500D01*
X220600Y23900D02*
Y34420D01*
X214607Y38434D02*
X219200Y33840D01*
X215187Y39834D02*
X220600Y34420D01*
X222000Y30000D02*
Y35000D01*
X215766Y41234D02*
X222000Y35000D01*
X220600Y23900D02*
X223516Y20983D01*
X222000Y30000D02*
X223516Y28484D01*
Y20983D02*
X226736D01*
X223516Y28484D02*
X226736D01*
X155000Y73500D02*
X157500D01*
X152945Y69988D02*
X152957Y70000D01*
X147457Y68020D02*
X150980D01*
X133874Y47126D02*
X134442Y46558D01*
X133874Y47126D02*
Y50500D01*
X122047Y50484D02*
X122063Y50500D01*
X251413Y47270D02*
X324324D01*
X319735Y48870D02*
X329835Y58970D01*
X252076Y48870D02*
X319735D01*
X246671Y52012D02*
X251413Y47270D01*
X276735Y54870D02*
X280835Y58970D01*
X254561Y54870D02*
X276735D01*
X245950Y63481D02*
X254561Y54870D01*
X253940Y53370D02*
X281924D01*
X245797Y61512D02*
X253940Y53370D01*
X302802Y51870D02*
X305335Y54402D01*
X253319Y51870D02*
X302802D01*
X247271Y57918D02*
X253319Y51870D01*
X252697Y50370D02*
X303424D01*
X247118Y55949D02*
X252697Y50370D01*
X246965Y53981D02*
X252076Y48870D01*
X305335Y54402D02*
Y58970D01*
X251689Y19734D02*
X257000Y14423D01*
X256500Y22297D02*
X257000D01*
X252437D02*
X256500D01*
X131905Y44721D02*
Y50500D01*
X245822Y19734D02*
X246500Y20411D01*
X243135Y65449D02*
X246103D01*
X252446Y59107D01*
X256635D01*
X243135Y63481D02*
X245950D01*
X243135Y61512D02*
X245797D01*
X243135Y57918D02*
X247271D01*
X243135Y55949D02*
X247118D01*
X243135Y53981D02*
X246965D01*
X243135Y52012D02*
X246671D01*
X225236Y15983D02*
X230257D01*
X232055Y17781D02*
X234842D01*
X230257Y15983D02*
X232055Y17781D01*
X225236Y18484D02*
X230257D01*
X231523Y19749D02*
X234842D01*
X230257Y18484D02*
X231523Y19749D01*
X225236Y23483D02*
X230257D01*
X232023Y21718D01*
X234842D01*
X232459Y23686D02*
X234842D01*
X230161Y25984D02*
X232459Y23686D01*
X225236Y25984D02*
X230161D01*
X246500Y20411D02*
X247177Y19734D01*
X251689D01*
X170791Y79315D02*
X171016Y79090D01*
X179016Y68941D02*
X180240Y67716D01*
Y63567D02*
Y67716D01*
X171195Y53541D02*
X172516Y54862D01*
X165016Y53541D02*
X171195D01*
X162916D02*
X165016D01*
X147457Y64083D02*
X152374D01*
X162916Y53541D01*
X147457Y62114D02*
X152221D01*
X165016Y46341D02*
X171195D01*
X172516Y45020D01*
X152221Y62114D02*
X161516Y52820D01*
Y47441D02*
Y52820D01*
Y47441D02*
X162616Y46341D01*
X165016D01*
X215128Y63707D02*
X226536D01*
X162516Y72941D02*
X163516Y73941D01*
X162516Y70441D02*
Y72941D01*
X163137Y68941D02*
X179016D01*
X238665Y6749D02*
X242606D01*
X238665Y8718D02*
X242758D01*
X238665Y10686D02*
X242911D01*
X251047Y23686D02*
X252437Y22297D01*
X238665Y23686D02*
X251047D01*
X255935Y66281D02*
X256635Y66981D01*
X243135Y67418D02*
X249198D01*
X250335Y66281D01*
X255935D01*
X238665Y17781D02*
X241953D01*
X242700Y17033D01*
X244243Y19734D02*
X245822D01*
X242258Y21718D02*
X244243Y19734D01*
X242106Y19749D02*
X244200Y17655D01*
X238665Y19749D02*
X242106D01*
X238665Y21718D02*
X242258D01*
X242700Y13034D02*
Y17033D01*
X244200Y13655D02*
Y17655D01*
X238665Y4781D02*
X242453D01*
X216128Y78707D02*
X226536D01*
X213847Y80988D02*
X216128Y78707D01*
X309600Y9083D02*
Y18196D01*
X305500Y22297D02*
X309600Y18196D01*
X295500Y20344D02*
X299110D01*
X301063Y22297D01*
X305500D01*
X330000D02*
X334500Y17797D01*
Y7000D02*
Y17797D01*
X320000Y20344D02*
X323610D01*
X325563Y22297D01*
X330000D01*
X129937Y46862D02*
Y50500D01*
X285100Y56546D02*
Y62578D01*
X281924Y53370D02*
X285100Y56546D01*
X280835Y66844D02*
X285100Y62578D01*
X309600Y56546D02*
Y62578D01*
X303424Y50370D02*
X309600Y56546D01*
X305335Y66844D02*
X309600Y62578D01*
X334200Y57146D02*
Y62478D01*
X324324Y47270D02*
X334200Y57146D01*
X329835Y66844D02*
X334200Y62478D01*
X212601Y66234D02*
X215128Y63707D01*
X82900Y97000D02*
X83400Y97500D01*
Y92500D02*
X83900Y92000D01*
X126000Y34957D02*
Y50500D01*
X205029Y31234D02*
X205279Y30984D01*
X242606Y6749D02*
X244582Y4772D01*
X242758Y8718D02*
X245304Y6173D01*
X242911Y10686D02*
X246025Y7572D01*
X242700Y13034D02*
X246761Y8973D01*
X244200Y13655D02*
X247482Y10373D01*
X242453Y4781D02*
X243861Y3373D01*
X285339Y7572D02*
X292189Y14423D01*
X306690Y6173D02*
X309600Y9083D01*
X307270Y4772D02*
X316920Y14423D01*
X330000D01*
X330873Y3373D02*
X334500Y7000D01*
X243861Y3373D02*
X330873D01*
X244582Y4772D02*
X307270D01*
X245304Y6173D02*
X306690D01*
X246025Y7572D02*
X285339D01*
X295500Y102000D02*
Y115600D01*
X271000Y102500D02*
Y115600D01*
X79110Y97500D02*
X81610Y95000D01*
X122063Y50500D02*
Y53605D01*
X119668Y56000D02*
X122063Y53605D01*
X108500Y56000D02*
X119668D01*
X104100Y46000D02*
X110825D01*
X73000Y87000D02*
X79000D01*
X78610Y91500D02*
X79110Y92000D01*
X69492Y91500D02*
X78610D01*
X72500Y97000D02*
X76000D01*
X76500Y97500D01*
X79110D01*
X69492Y76500D02*
X77000D01*
X292189Y14423D02*
X305500D01*
X246500Y119890D02*
X247016Y119374D01*
X256500D01*
X271000Y119390D02*
X280984D01*
X281000Y119374D01*
X295500Y119390D02*
X305484D01*
X305500Y119374D01*
X320000Y119390D02*
X329984D01*
X330000Y119374D01*
X320000Y104000D02*
Y115600D01*
X277296Y22297D02*
X281000D01*
X136037Y28484D02*
X205279D01*
X147457Y66051D02*
X147708Y65800D01*
X159996D01*
X151800Y67200D02*
X159275D01*
X150980Y68020D02*
X151800Y67200D01*
X159275D02*
X162516Y70441D01*
X159996Y65800D02*
X163137Y68941D01*
X152500Y70000D02*
X152957D01*
X152500D02*
X154000Y71500D01*
Y73057D01*
X147457Y69988D02*
X152945D01*
X112221Y47395D02*
Y50500D01*
X110825Y46000D02*
X112220Y47395D01*
X112221D01*
X110252Y48152D02*
Y50500D01*
X109500Y47400D02*
X110252Y48152D01*
X104680Y47400D02*
X109500D01*
X98886Y62114D02*
X102575D01*
X94500Y66500D02*
X98886Y62114D01*
X72000Y96500D02*
X72500Y97000D01*
X201267Y66234D02*
X212601D01*
X200773Y68707D02*
X205080D01*
X198000Y69500D02*
X201267Y66234D01*
X199400Y70080D02*
X200773Y68707D01*
X168547Y91047D02*
X172000Y94500D01*
X172500D01*
X177807D01*
X75500Y51500D02*
Y64500D01*
X75000Y51000D02*
X75500Y51500D01*
X75000Y45000D02*
Y51000D01*
Y45000D02*
X75500Y44500D01*
X187920Y115000D02*
X203344Y99576D01*
X268076D01*
X186760Y112200D02*
X202184Y96776D01*
X312776D01*
X187340Y113600D02*
X202764Y98176D01*
X291676D01*
X185000Y108000D02*
X196500Y96500D01*
X185600Y109400D02*
X197900Y97100D01*
X186180Y110800D02*
X199300Y97680D01*
X202012Y80988D02*
X213847D01*
X199300Y90700D02*
Y97680D01*
Y90700D02*
X201267Y88734D01*
X205053D01*
X124031Y33468D02*
Y50500D01*
Y33468D02*
X130417Y27084D01*
X177917D01*
X147457Y83768D02*
X147624Y83600D01*
X157080D01*
X161580Y88100D01*
X154500Y88500D02*
X158000D01*
X160547Y91047D01*
X168547D01*
X147457Y85736D02*
X157236D01*
X161000Y89500D01*
X45119Y112509D02*
X45610Y113000D01*
X45110Y109500D02*
X45610Y109000D01*
X30760Y103240D02*
Y106276D01*
X38000Y106516D02*
X38240Y106276D01*
X38000Y106516D02*
Y109500D01*
X45110D01*
X38000Y112509D02*
Y115484D01*
X38240Y115724D01*
X38000Y112509D02*
X45119D01*
X19000Y113559D02*
X24441D01*
X25491Y112509D01*
X38000D01*
X30035Y107000D02*
X30760Y106276D01*
Y103240D02*
X31500Y102500D01*
Y101000D02*
Y102500D01*
X26621Y107000D02*
X30035D01*
X19000Y108441D02*
X25180D01*
X26621Y107000D01*
X26101Y109500D02*
X38000D01*
X19000Y111000D02*
X24601D01*
X26101Y109500D01*
X81497Y59003D02*
X86000Y54500D01*
X81497Y59003D02*
Y84503D01*
X79000Y87000D02*
X81497Y84503D01*
X72500Y82000D02*
X76000D01*
X77950Y80050D01*
Y80029D02*
Y80050D01*
Y80029D02*
X79600Y78379D01*
Y55561D02*
Y78379D01*
X89000Y52000D02*
X91500Y49500D01*
X102580D01*
X94500Y66500D02*
Y77500D01*
X83500Y86500D02*
X86000D01*
X81610Y89500D02*
X86394D01*
X88500Y73000D02*
X89100Y72400D01*
X49400Y113000D02*
X52500D01*
X53500Y112000D01*
X94900Y87580D02*
X98712Y83768D01*
X102575D01*
Y85736D02*
X106394D01*
X108000Y87342D01*
X49400Y117000D02*
X84000D01*
X108000Y93000D01*
Y87342D02*
Y93000D01*
X83480Y112000D02*
X94900Y100580D01*
X53500Y112000D02*
X83480D01*
X94900Y87580D02*
Y100580D01*
X83900Y92000D02*
X86000D01*
X83400Y97500D02*
X86000D01*
X81610Y95000D02*
X86394D01*
X88500Y73000D02*
Y87394D01*
X86394Y89500D02*
X88500Y87394D01*
X90000Y82000D02*
X94500Y77500D01*
X90000Y82000D02*
Y91394D01*
X86394Y95000D02*
X90000Y91394D01*
X116157Y40157D02*
Y50500D01*
X95000Y34000D02*
X110000D01*
X116157Y40157D01*
X49400Y109000D02*
X52500D01*
X53500Y110000D01*
X82500D01*
X93000Y99500D01*
Y86500D02*
Y99500D01*
Y86500D02*
X97701Y81799D01*
X102575D01*
D38*
X54400Y54900D02*
Y56000D01*
X52469Y52969D02*
X54400Y54900D01*
X52469Y50937D02*
Y52969D01*
X50500Y47000D02*
Y56500D01*
X42610Y53890D02*
Y56500D01*
X32000D02*
X42610D01*
X25500Y50000D02*
X32000Y56500D01*
X47763Y39500D02*
X49000D01*
X46000Y37737D02*
X47763Y39500D01*
X46000Y37000D02*
Y37737D01*
X46563Y40563D02*
Y43260D01*
X44618Y38618D02*
X46563Y40563D01*
X43731Y38618D02*
X44618D01*
X42500Y37387D02*
X43731Y38618D01*
X42500Y33000D02*
Y37387D01*
X144000Y41500D02*
Y45370D01*
X140000Y41500D02*
Y45400D01*
X102720Y60000D02*
X109000D01*
X102575Y60146D02*
X102720Y60000D01*
X234012Y52012D02*
X238304D01*
X234481Y53981D02*
X238304D01*
X234207Y53707D02*
X234481Y53981D01*
X226865Y53707D02*
X234207D01*
X231607Y49607D02*
X234012Y52012D01*
X221205Y49607D02*
X231607D01*
X153500Y97500D02*
Y101500D01*
X143870Y45500D02*
X144000Y45370D01*
X140000Y45400D02*
X140100Y45500D01*
X139780Y45820D02*
Y50500D01*
Y45820D02*
X140100Y45500D01*
X226829Y84000D02*
X232610D01*
X226536Y83707D02*
X226829Y84000D01*
X236400D02*
X240000D01*
X76000Y5000D02*
X79630D01*
X54858Y28500D02*
X55358Y28000D01*
X40500Y42000D02*
X43500D01*
X44760Y43260D01*
X46563D01*
X42500Y33000D02*
X43119Y32381D01*
X44119D01*
X45322Y31177D01*
Y29600D02*
Y31177D01*
X179000Y7000D02*
X183193D01*
X158000Y77900D02*
Y81000D01*
X154500Y77870D02*
Y81000D01*
X214036Y78607D02*
X221536Y71107D01*
X205308Y78607D02*
X214036D01*
X319535Y80544D02*
X323044D01*
X325092Y82592D01*
X330000D01*
X295035Y80544D02*
X298544D01*
X300592Y82592D01*
X305500D01*
X276092D02*
X281000D01*
X274044Y80544D02*
X276092Y82592D01*
X270535Y80544D02*
X274044D01*
X251092Y82592D02*
X256500D01*
X249440Y80940D02*
X251092Y82592D01*
X246635Y80940D02*
X249440D01*
X132000Y38000D02*
Y41600D01*
X158109Y96609D02*
X158500Y97000D01*
X165016Y57311D02*
Y60941D01*
X161516Y63941D02*
X162646Y65071D01*
X110252Y95382D02*
Y97441D01*
X50500Y41000D02*
Y43260D01*
X46563D02*
X48531D01*
X46563Y50740D02*
Y51437D01*
X45500Y52500D02*
X46563Y51437D01*
X44000Y52500D02*
X45500D01*
X42610Y53890D02*
X44000Y52500D01*
X48531Y50740D02*
Y53369D01*
X46400Y55500D02*
X48531Y53369D01*
X205308Y73607D02*
X212536D01*
X205308Y58607D02*
X211036D01*
X205308Y63607D02*
X213036D01*
X221536Y71107D02*
X231036D01*
X226765Y68607D02*
X231274D01*
X100516Y58177D02*
X102575D01*
X223897Y71038D02*
X231105D01*
X231036Y71107D02*
X231105Y71038D01*
X227007Y43104D02*
Y46234D01*
X271219Y34234D02*
X275089D01*
X213267Y56376D02*
X229175D01*
X211036Y58607D02*
X213267Y56376D01*
X229175D02*
X229649Y55902D01*
X226536Y73707D02*
X231826D01*
X234942Y61512D02*
X238304D01*
X234725Y67418D02*
X238304D01*
X231105Y71038D02*
X234725Y67418D01*
X234431Y65449D02*
X238304D01*
X231274Y68607D02*
X234431Y65449D01*
X231934Y63481D02*
X238304D01*
X231808Y63607D02*
X231934Y63481D01*
X234536Y61107D02*
X234942Y61512D01*
X215536Y61107D02*
X234536D01*
X213036Y63607D02*
X215536Y61107D01*
X226536Y58707D02*
X231936D01*
X232725Y57918D01*
X238304D01*
X229649Y55902D02*
X238257D01*
X226536Y53707D02*
X226865D01*
X226765Y53607D02*
X226865Y53707D01*
X227091Y53934D01*
X219536Y51276D02*
X221205Y49607D01*
X50677Y29600D02*
X51776Y28500D01*
X50777Y36300D02*
X51577Y35500D01*
X53758D02*
X54958Y36700D01*
X49000Y39500D02*
X50500Y41000D01*
X180240Y73216D02*
Y79315D01*
X170791Y63567D02*
X175390D01*
X162646Y65071D02*
X165016D01*
X164886Y42441D02*
X165016Y42571D01*
X164386Y42941D02*
X164886Y42441D01*
X152016Y47941D02*
Y51571D01*
X243000Y34500D02*
X246447D01*
X246500Y34552D01*
X320000Y34363D02*
X320136Y34500D01*
X323500D01*
X295663Y34000D02*
X299000D01*
X295300Y34363D02*
X295663Y34000D01*
X246500Y73500D02*
Y77035D01*
X246635Y77170D01*
X270535Y73239D02*
Y76774D01*
X295335Y73498D02*
Y77033D01*
X319800Y73595D02*
Y77130D01*
X114189Y95382D02*
Y98486D01*
X115000Y99297D02*
Y101600D01*
X114189Y98486D02*
X115000Y99297D01*
X112221Y95382D02*
Y98486D01*
X111000Y99707D02*
X112221Y98486D01*
X111000Y99707D02*
Y101000D01*
X162500Y93630D02*
X163130Y93000D01*
X164500D01*
X166000Y94500D01*
X158500Y97000D02*
X165000D01*
X166500Y98500D01*
X35000Y102000D02*
Y105776D01*
X34500Y106276D02*
X35000Y105776D01*
X27500Y101110D02*
X28110Y100500D01*
X27500Y101110D02*
Y104000D01*
X19000Y105882D02*
X25618D01*
X27500Y104000D01*
X34500Y115724D02*
Y120000D01*
X31177Y127500D02*
X34000D01*
X30177Y128500D02*
X31177Y127500D01*
X25500Y31874D02*
Y50000D01*
D39*
X147500Y55000D02*
X151557D01*
X151616Y54941D01*
X137811Y50500D02*
Y56189D01*
X136500Y57500D02*
X137811Y56189D01*
X134457Y57500D02*
X136500D01*
X137811Y88689D02*
Y95382D01*
Y88689D02*
X138000Y88500D01*
X140153Y79653D02*
X147279D01*
X147457Y79831D01*
X98677Y58177D02*
X100516D01*
X97441Y56941D02*
X98677Y58177D01*
X96416Y56941D02*
X97441D01*
X95500Y57357D02*
Y60500D01*
Y57357D02*
X95916Y56941D01*
X88000Y57000D02*
X91630D01*
X143016Y91516D02*
X145100Y93600D01*
X143016Y82941D02*
Y91516D01*
X103500Y105000D02*
X107000D01*
X103500Y101500D02*
X106500D01*
X226736Y35984D02*
X227007Y36255D01*
X282911Y38134D02*
X283000Y38045D01*
X256411Y38322D02*
X256500Y38234D01*
X152016Y55341D02*
Y56941D01*
X150779Y58177D02*
X152016Y56941D01*
X147457Y58177D02*
X150779D01*
X143016Y82941D02*
X144158Y81799D01*
X147457D01*
X107000Y101374D02*
X110252Y98122D01*
Y97441D02*
Y98122D01*
X107000Y101374D02*
Y101600D01*
X137600Y101000D02*
Y104400D01*
X135843Y95382D02*
Y99243D01*
X137600Y101000D01*
X145100Y93600D02*
X158000D01*
D40*
X270500Y24333D02*
Y28000D01*
Y38434D02*
Y41500D01*
Y38434D02*
X270800Y38134D01*
X115000Y105370D02*
Y109000D01*
Y105370D02*
X117500D01*
X187000Y94500D02*
X191193D01*
X195133Y35500D02*
X198000D01*
X227007Y36255D02*
Y39334D01*
X230407D01*
X243000Y38322D02*
X246500D01*
X51776Y28500D02*
X54858D01*
X51577Y35500D02*
X53758D01*
X280911Y38134D02*
X281000Y38045D01*
X270800Y38134D02*
X280911D01*
X194400Y23833D02*
X197900D01*
X207900Y48734D02*
X211500D01*
X204100Y45134D02*
Y48734D01*
X246500Y38322D02*
X256411D01*
X243000Y28000D02*
X246366D01*
X246500Y28134D01*
Y15834D02*
X246834Y15500D01*
X250000D01*
X270800Y10034D02*
X270834Y10000D01*
X274500D01*
X295500Y24134D02*
Y27500D01*
Y10034D02*
X299466D01*
X299500Y10000D01*
X320000Y24134D02*
Y27500D01*
Y6734D02*
Y10034D01*
Y38134D02*
X329911D01*
X330000Y38045D01*
X295300Y38134D02*
X305411D01*
X305500Y38045D01*
X53508Y96500D02*
X61000D01*
X204867Y53494D02*
X205080Y53707D01*
X204000Y48834D02*
Y53494D01*
X204867D01*
X204000Y48834D02*
X204100Y48734D01*
X115000Y101600D02*
X118500D01*
X141370Y101000D02*
X145000D01*
X53508Y91500D02*
X61000D01*
X53508Y86500D02*
X61000D01*
X53508Y76500D02*
X61000D01*
D41*
X121000Y13177D02*
Y17000D01*
D42*
X95500Y43500D02*
Y44500D01*
Y43500D02*
X100500Y38500D01*
X112449D01*
X114189Y40240D01*
Y50500D01*
D43*
X85500Y64500D02*
D03*
X75500D02*
D03*
X95000Y44000D02*
D03*
Y34000D02*
D03*
X85000Y44000D02*
D03*
Y34000D02*
D03*
X75000Y44000D02*
D03*
X192000Y16500D02*
D03*
D44*
X65500Y64500D02*
D03*
X75000Y34000D02*
D03*
D45*
X192000Y6500D02*
D03*
D46*
X125016Y60736D02*
D03*
Y85146D02*
D03*
D47*
X330000Y82592D02*
D03*
Y58970D02*
D03*
Y74718D02*
D03*
Y66844D02*
D03*
X281000Y82592D02*
D03*
Y58970D02*
D03*
Y74718D02*
D03*
Y66844D02*
D03*
X256500Y38045D02*
D03*
Y14423D02*
D03*
Y30171D02*
D03*
Y22297D02*
D03*
X330000Y38045D02*
D03*
Y14423D02*
D03*
Y30171D02*
D03*
Y22297D02*
D03*
X281000Y38045D02*
D03*
Y14423D02*
D03*
Y30171D02*
D03*
Y22297D02*
D03*
X305500Y38045D02*
D03*
Y14423D02*
D03*
Y30171D02*
D03*
Y22297D02*
D03*
X25500Y75437D02*
D03*
Y67563D02*
D03*
Y31874D02*
D03*
Y24000D02*
D03*
Y16126D02*
D03*
X305500Y82592D02*
D03*
Y58970D02*
D03*
Y74718D02*
D03*
Y66844D02*
D03*
X256500Y82592D02*
D03*
Y58970D02*
D03*
Y74718D02*
D03*
Y66844D02*
D03*
X330000Y119374D02*
D03*
Y111500D02*
D03*
Y103626D02*
D03*
X256500D02*
D03*
Y111500D02*
D03*
Y119374D02*
D03*
X281000Y103626D02*
D03*
Y111500D02*
D03*
Y119374D02*
D03*
X305500Y103626D02*
D03*
Y111500D02*
D03*
Y119374D02*
D03*
D48*
X8468Y94563D02*
D03*
Y127437D02*
D03*
D49*
X20378Y119760D02*
D03*
Y102240D02*
D03*
D50*
X40000Y31000D02*
D03*
X144000Y41500D02*
D03*
X140000D02*
D03*
X147500Y55000D02*
D03*
X270500Y28000D02*
D03*
X276500Y18500D02*
D03*
X109000Y60000D02*
D03*
X138000Y88500D02*
D03*
X140153Y79653D02*
D03*
X134457Y57500D02*
D03*
X270500Y41500D02*
D03*
X153500Y101500D02*
D03*
X139500Y37500D02*
D03*
X95500Y60500D02*
D03*
X88000Y57000D02*
D03*
X96500Y52000D02*
D03*
X186500Y70500D02*
D03*
X240000Y84000D02*
D03*
X78000Y23500D02*
D03*
X83000D02*
D03*
X89500Y10000D02*
D03*
Y19000D02*
D03*
X76000Y5000D02*
D03*
X115000Y109000D02*
D03*
X103500Y105000D02*
D03*
Y101500D02*
D03*
X187000Y94500D02*
D03*
X179000Y7000D02*
D03*
X166000Y7500D02*
D03*
X198000Y35500D02*
D03*
X158000Y81000D02*
D03*
X154500D02*
D03*
X145000Y101000D02*
D03*
X165016Y60941D02*
D03*
X161516Y63941D02*
D03*
X290089Y18234D02*
D03*
X314500D02*
D03*
X339000D02*
D03*
X44000Y47000D02*
D03*
X57000D02*
D03*
X50500D02*
D03*
X231808Y63607D02*
D03*
X219536Y51276D02*
D03*
X212536Y73607D02*
D03*
X230407Y39334D02*
D03*
X275089Y34234D02*
D03*
X243000Y38423D02*
D03*
X231826Y73707D02*
D03*
X180240Y73216D02*
D03*
X175390Y63567D02*
D03*
X156516Y40941D02*
D03*
X180500Y41000D02*
D03*
X152016Y47941D02*
D03*
X137600Y104400D02*
D03*
X132000Y38000D02*
D03*
X197900Y23833D02*
D03*
X186500Y85000D02*
D03*
X162516Y84941D02*
D03*
X165516Y81441D02*
D03*
X186500Y55500D02*
D03*
X156016Y53941D02*
D03*
X200000Y12500D02*
D03*
X107500Y51500D02*
D03*
X320000Y6734D02*
D03*
X211500Y48734D02*
D03*
X161000Y42000D02*
D03*
X77000Y76500D02*
D03*
X227000Y46000D02*
D03*
X243000Y34500D02*
D03*
Y28000D02*
D03*
X250000Y15500D02*
D03*
X274500Y10000D02*
D03*
X295500Y27500D02*
D03*
X299500Y10000D02*
D03*
X320000Y27500D02*
D03*
X323500Y34500D02*
D03*
X299000Y34000D02*
D03*
X166000Y18500D02*
D03*
X61000Y96500D02*
D03*
X273000Y128000D02*
D03*
X321500Y129000D02*
D03*
X246500Y73500D02*
D03*
X270535Y73239D02*
D03*
X295335Y73498D02*
D03*
X319800Y73595D02*
D03*
X338266Y62734D02*
D03*
X313766D02*
D03*
X289266D02*
D03*
X265066Y62871D02*
D03*
X266000Y113000D02*
D03*
X273000Y101000D02*
D03*
X321445Y101055D02*
D03*
X314445Y113055D02*
D03*
X173500Y37500D02*
D03*
X121000Y17000D02*
D03*
X139000D02*
D03*
X121000Y32000D02*
D03*
X119500Y63000D02*
D03*
X131500D02*
D03*
X172500Y18000D02*
D03*
X176000Y23000D02*
D03*
X129457Y31500D02*
D03*
X210500Y12500D02*
D03*
X200000Y8000D02*
D03*
X205000D02*
D03*
X210500D02*
D03*
X232000Y89000D02*
D03*
X221000D02*
D03*
Y93500D02*
D03*
X226500D02*
D03*
X232000D02*
D03*
X204100Y45134D02*
D03*
X152500Y70000D02*
D03*
X106500Y22500D02*
D03*
X5600Y42500D02*
D03*
X11600D02*
D03*
X17600D02*
D03*
X5400Y56500D02*
D03*
X11400D02*
D03*
X17400D02*
D03*
X36000Y52000D02*
D03*
X33000Y42500D02*
D03*
X111000Y101000D02*
D03*
X156500Y70000D02*
D03*
X173500Y85000D02*
D03*
X166000Y94500D02*
D03*
X166500Y98500D02*
D03*
X154500Y88500D02*
D03*
X35000Y102000D02*
D03*
X27500Y104000D02*
D03*
X34500Y120000D02*
D03*
X34000Y127500D02*
D03*
X35500Y92500D02*
D03*
Y96500D02*
D03*
X45000Y123500D02*
D03*
X40000D02*
D03*
Y100500D02*
D03*
X89000Y52000D02*
D03*
X61000Y91500D02*
D03*
Y86500D02*
D03*
Y76500D02*
D03*
X45000Y100500D02*
D03*
Y105000D02*
D03*
X42500Y120000D02*
D03*
X31000Y31500D02*
D03*
X28500Y48500D02*
D03*
X86000Y86500D02*
D03*
X88500Y73000D02*
D03*
X86000Y92000D02*
D03*
Y97500D02*
D03*
X103000Y22500D02*
D03*
M02*
