M48
;Layer_Color=9474304
;FILE_FORMAT=2:5
INCH,LZ
;TYPE=PLATED
T1F00S00C0.01300
T2F00S00C0.02756
T3F00S00C0.03000
T4F00S00C0.03300
T5F00S00C0.03543
T6F00S00C0.05118
;TYPE=NON_PLATED
T7F00S00C0.03937
%
T01
X02745Y001
X02765Y00185
X0290089Y0018234
X02955Y00275
X0299Y0034
X0275089Y0034234
X02995Y001
X03145Y0018234
X032Y00275
X03235Y00345
X032Y0006734
X0339Y0018234
X02705Y0028
X0243
Y00345
X025Y00155
X02105Y00125
Y0008
X0205
X02
Y00125
X01979Y0023833
X0198Y00355
X0176Y0023
X01725Y0018
X0166Y00185
Y00075
X0179Y0007
X0139Y0017
X0121
Y0032
X0129457Y00315
X01065Y00225
X0103
X00895Y0019
Y001
X0076Y0005
X0078Y00235
X0083
X004Y0031
X0031Y00315
X0033Y00425
X00285Y00485
X0036Y0052
X0044Y0047
X00505
X0057
X0061Y00765
Y00865
Y00915
Y00965
X0045Y01005
Y0105
X004Y01005
X0035Y0102
X00355Y00965
Y00925
X00275Y0104
X00345Y012
X0034Y01275
X004Y01235
X0045
X00425Y012
X0086Y00975
Y0092
Y00865
X00885Y0073
X0077Y00765
X0088Y0057
X0089Y0052
X00965
X00955Y00605
X0109Y006
X01075Y00515
X0111Y0101
X01035Y01015
Y0105
X00174Y00565
X00114
X00054
X00056Y00425
X00116
X00176
X0132Y0038
X01395Y00375
X014Y00415
X0144
X0156516Y0040941
X0161Y0042
X0152016Y0047941
X0156016Y0053941
X01475Y0055
X0134457Y00575
X01315Y0063
X01195
X0140153Y0079653
X0138Y00885
X01376Y01044
X0145Y0101
X01535Y01015
X01545Y00885
Y0081
X0158
X0165516Y0081441
X0162516Y0084941
X01735Y0085
X01865
X0187Y00945
X0166
X01665Y00985
X01565Y007
X01525
X0161516Y0063941
X0165016Y0060941
X017539Y0063567
X018024Y0073216
X01865Y00705
Y00555
X01805Y0041
X01735Y00375
X02041Y0045134
X02115Y0048734
X0219536Y0051276
X0227Y0046
X0230407Y0039334
X0243Y0038423
X02705Y00415
X0265066Y0062871
X0270535Y0073239
X02465Y00735
X0231826Y0073707
X0231808Y0063607
X0232Y0089
Y00935
X02265
X0221
Y0089
X0212536Y0073607
X024Y0084
X0266Y0113
X0115Y0109
X0273Y0101
Y0128
X03215Y0129
X0314445Y0113055
X0321445Y0101055
X03198Y0073595
X0313766Y0062734
X0338266
X0289266
X0295335Y0073498
T02
X0281Y0030171
X03055
X033
X02565
X00255Y0031874
Y0024
Y0016126
Y0067563
Y0075437
X02565Y0074718
Y0103626
Y01115
Y0119374
X0281
Y01115
Y0103626
X03055
Y01115
Y0119374
X033
Y01115
Y0103626
Y0074718
X03055
X0281
T03
X0281Y0014423
Y0022297
X03055
Y0014423
X033
Y0022297
X02565
Y0014423
Y0038045
Y005897
Y0066844
Y0082592
X0281
Y0066844
Y005897
Y0038045
X03055
Y005897
Y0066844
Y0082592
X033
Y0066844
Y005897
Y0038045
T04
X0020378Y010224
Y011976
T05
X0192Y00065
Y00165
X0095Y0034
X0085
X0075
Y0044
X0085
X0095
X00855Y00645
X00755
X00655
T06
X0008468Y0094563
Y0127437
T07
X0125016Y0060736
Y0085146
M30
