G04 Layer_Color=16711935*
%FSLAX25Y25*%
%MOIN*%
G70*
G01*
G75*
G04:AMPARAMS|DCode=70|XSize=30mil|YSize=32mil|CornerRadius=8.4mil|HoleSize=0mil|Usage=FLASHONLY|Rotation=90.000|XOffset=0mil|YOffset=0mil|HoleType=Round|Shape=RoundedRectangle|*
%AMROUNDEDRECTD70*
21,1,0.03000,0.01520,0,0,90.0*
21,1,0.01320,0.03200,0,0,90.0*
1,1,0.01680,0.00760,0.00660*
1,1,0.01680,0.00760,-0.00660*
1,1,0.01680,-0.00760,-0.00660*
1,1,0.01680,-0.00760,0.00660*
%
%ADD70ROUNDEDRECTD70*%
G04:AMPARAMS|DCode=72|XSize=30mil|YSize=32mil|CornerRadius=8.4mil|HoleSize=0mil|Usage=FLASHONLY|Rotation=0.000|XOffset=0mil|YOffset=0mil|HoleType=Round|Shape=RoundedRectangle|*
%AMROUNDEDRECTD72*
21,1,0.03000,0.01520,0,0,0.0*
21,1,0.01320,0.03200,0,0,0.0*
1,1,0.01680,0.00660,-0.00760*
1,1,0.01680,-0.00660,-0.00760*
1,1,0.01680,-0.00660,0.00760*
1,1,0.01680,0.00660,0.00760*
%
%ADD72ROUNDEDRECTD72*%
G04:AMPARAMS|DCode=91|XSize=86.74mil|YSize=165.48mil|CornerRadius=23.69mil|HoleSize=0mil|Usage=FLASHONLY|Rotation=90.000|XOffset=0mil|YOffset=0mil|HoleType=Round|Shape=RoundedRectangle|*
%AMROUNDEDRECTD91*
21,1,0.08674,0.11811,0,0,90.0*
21,1,0.03937,0.16548,0,0,90.0*
1,1,0.04737,0.05906,0.01969*
1,1,0.04737,0.05906,-0.01969*
1,1,0.04737,-0.05906,-0.01969*
1,1,0.04737,-0.05906,0.01969*
%
%ADD91ROUNDEDRECTD91*%
%ADD94C,0.06706*%
%ADD95R,0.06706X0.06706*%
%ADD96R,0.06706X0.06706*%
%ADD97C,0.04737*%
%ADD98C,0.06800*%
%ADD99C,0.07099*%
%ADD100C,0.04900*%
%ADD101R,0.04540X0.02178*%
%ADD102R,0.06312X0.03162*%
%ADD103R,0.03162X0.06312*%
D70*
X168000Y45390D02*
D03*
Y41600D02*
D03*
X168500Y55610D02*
D03*
Y59400D02*
D03*
X168000Y35390D02*
D03*
Y31600D02*
D03*
D72*
X100130Y52000D02*
D03*
X103900D02*
D03*
X168510Y25903D02*
D03*
X172300D02*
D03*
X172270Y21403D02*
D03*
X168500D02*
D03*
D91*
X11500Y49500D02*
D03*
D94*
X85500Y64500D02*
D03*
X75500D02*
D03*
X95000Y44000D02*
D03*
Y34000D02*
D03*
X85000Y44000D02*
D03*
Y34000D02*
D03*
X75000Y44000D02*
D03*
X192000Y16500D02*
D03*
D95*
X65500Y64500D02*
D03*
X75000Y34000D02*
D03*
D96*
X192000Y6500D02*
D03*
D97*
X125016Y60736D02*
D03*
Y85146D02*
D03*
D98*
X330000Y82592D02*
D03*
Y58970D02*
D03*
Y74718D02*
D03*
Y66844D02*
D03*
X281000Y82592D02*
D03*
Y58970D02*
D03*
Y74718D02*
D03*
Y66844D02*
D03*
X256500Y38045D02*
D03*
Y14423D02*
D03*
Y30171D02*
D03*
Y22297D02*
D03*
X330000Y38045D02*
D03*
Y14423D02*
D03*
Y30171D02*
D03*
Y22297D02*
D03*
X281000Y38045D02*
D03*
Y14423D02*
D03*
Y30171D02*
D03*
Y22297D02*
D03*
X305500Y38045D02*
D03*
Y14423D02*
D03*
Y30171D02*
D03*
Y22297D02*
D03*
X25500Y75437D02*
D03*
Y67563D02*
D03*
Y31874D02*
D03*
Y24000D02*
D03*
Y16126D02*
D03*
X305500Y82592D02*
D03*
Y58970D02*
D03*
Y74718D02*
D03*
Y66844D02*
D03*
X256500Y82592D02*
D03*
Y58970D02*
D03*
Y74718D02*
D03*
Y66844D02*
D03*
X330000Y119374D02*
D03*
Y111500D02*
D03*
Y103626D02*
D03*
X256500D02*
D03*
Y111500D02*
D03*
Y119374D02*
D03*
X281000Y103626D02*
D03*
Y111500D02*
D03*
Y119374D02*
D03*
X305500Y103626D02*
D03*
Y111500D02*
D03*
Y119374D02*
D03*
D99*
X8468Y94563D02*
D03*
Y127437D02*
D03*
D100*
X20378Y119760D02*
D03*
Y102240D02*
D03*
D101*
X272945Y104441D02*
D03*
Y107000D02*
D03*
Y109559D02*
D03*
X266055D02*
D03*
Y107000D02*
D03*
Y104441D02*
D03*
X321445D02*
D03*
Y107000D02*
D03*
Y109559D02*
D03*
X314555D02*
D03*
Y107000D02*
D03*
Y104441D02*
D03*
D102*
X263760Y22163D02*
D03*
Y14682D02*
D03*
X271240Y18422D02*
D03*
X288349Y21974D02*
D03*
Y14493D02*
D03*
X295829Y18234D02*
D03*
X264060Y66611D02*
D03*
Y59130D02*
D03*
X271540Y62871D02*
D03*
X312760Y66474D02*
D03*
Y58993D02*
D03*
X320240Y62734D02*
D03*
X288260Y66474D02*
D03*
Y58993D02*
D03*
X295740Y62734D02*
D03*
X337260Y66474D02*
D03*
Y58993D02*
D03*
X344740Y62734D02*
D03*
X337260Y21974D02*
D03*
Y14493D02*
D03*
X344740Y18234D02*
D03*
X312760Y21974D02*
D03*
Y14493D02*
D03*
X320240Y18234D02*
D03*
X105100Y25700D02*
D03*
X105200Y35700D02*
D03*
X104800Y45700D02*
D03*
X105200Y55700D02*
D03*
X162700D02*
D03*
Y45700D02*
D03*
Y35700D02*
D03*
Y25700D02*
D03*
D103*
X314260Y120260D02*
D03*
X321740D02*
D03*
X318000Y127740D02*
D03*
X265760Y120260D02*
D03*
X273240D02*
D03*
X269500Y127740D02*
D03*
M02*
