G04 Layer_Color=8388736*
%FSLAX25Y25*%
%MOIN*%
G70*
G01*
G75*
%ADD13R,0.11024X0.02953*%
%ADD68O,0.01587X0.03556*%
%ADD69R,0.10249X0.03753*%
G04:AMPARAMS|DCode=70|XSize=30mil|YSize=32mil|CornerRadius=8.4mil|HoleSize=0mil|Usage=FLASHONLY|Rotation=90.000|XOffset=0mil|YOffset=0mil|HoleType=Round|Shape=RoundedRectangle|*
%AMROUNDEDRECTD70*
21,1,0.03000,0.01520,0,0,90.0*
21,1,0.01320,0.03200,0,0,90.0*
1,1,0.01680,0.00760,0.00660*
1,1,0.01680,0.00760,-0.00660*
1,1,0.01680,-0.00760,-0.00660*
1,1,0.01680,-0.00760,0.00660*
%
%ADD70ROUNDEDRECTD70*%
%ADD71C,0.05800*%
G04:AMPARAMS|DCode=72|XSize=30mil|YSize=32mil|CornerRadius=8.4mil|HoleSize=0mil|Usage=FLASHONLY|Rotation=0.000|XOffset=0mil|YOffset=0mil|HoleType=Round|Shape=RoundedRectangle|*
%AMROUNDEDRECTD72*
21,1,0.03000,0.01520,0,0,0.0*
21,1,0.01320,0.03200,0,0,0.0*
1,1,0.01680,0.00660,-0.00760*
1,1,0.01680,-0.00660,-0.00760*
1,1,0.01680,-0.00660,0.00760*
1,1,0.01680,0.00660,0.00760*
%
%ADD72ROUNDEDRECTD72*%
G04:AMPARAMS|DCode=73|XSize=73mil|YSize=48mil|CornerRadius=14mil|HoleSize=0mil|Usage=FLASHONLY|Rotation=90.000|XOffset=0mil|YOffset=0mil|HoleType=Round|Shape=RoundedRectangle|*
%AMROUNDEDRECTD73*
21,1,0.07300,0.02000,0,0,90.0*
21,1,0.04500,0.04800,0,0,90.0*
1,1,0.02800,0.01000,0.02250*
1,1,0.02800,0.01000,-0.02250*
1,1,0.02800,-0.01000,-0.02250*
1,1,0.02800,-0.01000,0.02250*
%
%ADD73ROUNDEDRECTD73*%
%ADD74R,0.07690X0.13398*%
%ADD75R,0.07690X0.04737*%
%ADD76O,0.06509X0.02572*%
%ADD77O,0.06312X0.01981*%
%ADD78O,0.01981X0.06312*%
G04:AMPARAMS|DCode=79|XSize=19.81mil|YSize=43.43mil|CornerRadius=6.95mil|HoleSize=0mil|Usage=FLASHONLY|Rotation=90.000|XOffset=0mil|YOffset=0mil|HoleType=Round|Shape=RoundedRectangle|*
%AMROUNDEDRECTD79*
21,1,0.01981,0.02953,0,0,90.0*
21,1,0.00591,0.04343,0,0,90.0*
1,1,0.01391,0.01476,0.00295*
1,1,0.01391,0.01476,-0.00295*
1,1,0.01391,-0.01476,-0.00295*
1,1,0.01391,-0.01476,0.00295*
%
%ADD79ROUNDEDRECTD79*%
%ADD80R,0.02375X0.05918*%
G04:AMPARAMS|DCode=81|XSize=37.13mil|YSize=47.37mil|CornerRadius=9.83mil|HoleSize=0mil|Usage=FLASHONLY|Rotation=270.000|XOffset=0mil|YOffset=0mil|HoleType=Round|Shape=RoundedRectangle|*
%AMROUNDEDRECTD81*
21,1,0.03713,0.02772,0,0,270.0*
21,1,0.01748,0.04737,0,0,270.0*
1,1,0.01965,-0.01386,-0.00874*
1,1,0.01965,-0.01386,0.00874*
1,1,0.01965,0.01386,0.00874*
1,1,0.01965,0.01386,-0.00874*
%
%ADD81ROUNDEDRECTD81*%
%ADD82R,0.04540X0.02965*%
G04:AMPARAMS|DCode=83|XSize=37.13mil|YSize=47.37mil|CornerRadius=9.83mil|HoleSize=0mil|Usage=FLASHONLY|Rotation=180.000|XOffset=0mil|YOffset=0mil|HoleType=Round|Shape=RoundedRectangle|*
%AMROUNDEDRECTD83*
21,1,0.03713,0.02772,0,0,180.0*
21,1,0.01748,0.04737,0,0,180.0*
1,1,0.01965,-0.00874,0.01386*
1,1,0.01965,0.00874,0.01386*
1,1,0.01965,0.00874,-0.01386*
1,1,0.01965,-0.00874,-0.01386*
%
%ADD83ROUNDEDRECTD83*%
G04:AMPARAMS|DCode=84|XSize=46.58mil|YSize=39.5mil|CornerRadius=11.87mil|HoleSize=0mil|Usage=FLASHONLY|Rotation=270.000|XOffset=0mil|YOffset=0mil|HoleType=Round|Shape=RoundedRectangle|*
%AMROUNDEDRECTD84*
21,1,0.04658,0.01575,0,0,270.0*
21,1,0.02284,0.03950,0,0,270.0*
1,1,0.02375,-0.00787,-0.01142*
1,1,0.02375,-0.00787,0.01142*
1,1,0.02375,0.00787,0.01142*
1,1,0.02375,0.00787,-0.01142*
%
%ADD84ROUNDEDRECTD84*%
G04:AMPARAMS|DCode=85|XSize=32.41mil|YSize=31.23mil|CornerRadius=9.81mil|HoleSize=0mil|Usage=FLASHONLY|Rotation=0.000|XOffset=0mil|YOffset=0mil|HoleType=Round|Shape=RoundedRectangle|*
%AMROUNDEDRECTD85*
21,1,0.03241,0.01161,0,0,0.0*
21,1,0.01280,0.03123,0,0,0.0*
1,1,0.01961,0.00640,-0.00581*
1,1,0.01961,-0.00640,-0.00581*
1,1,0.01961,-0.00640,0.00581*
1,1,0.01961,0.00640,0.00581*
%
%ADD85ROUNDEDRECTD85*%
%ADD86O,0.06509X0.03162*%
%ADD87R,0.05524X0.07887*%
%ADD88R,0.08280X0.05131*%
%ADD89R,0.03950X0.07493*%
%ADD90R,0.03162X0.05131*%
G04:AMPARAMS|DCode=91|XSize=86.74mil|YSize=165.48mil|CornerRadius=23.69mil|HoleSize=0mil|Usage=FLASHONLY|Rotation=90.000|XOffset=0mil|YOffset=0mil|HoleType=Round|Shape=RoundedRectangle|*
%AMROUNDEDRECTD91*
21,1,0.08674,0.11811,0,0,90.0*
21,1,0.03937,0.16548,0,0,90.0*
1,1,0.04737,0.05906,0.01969*
1,1,0.04737,0.05906,-0.01969*
1,1,0.04737,-0.05906,-0.01969*
1,1,0.04737,-0.05906,0.01969*
%
%ADD91ROUNDEDRECTD91*%
%ADD92R,0.08280X0.07887*%
%ADD93R,0.06115X0.02375*%
%ADD94C,0.06706*%
%ADD95R,0.06706X0.06706*%
%ADD96R,0.06706X0.06706*%
%ADD97C,0.04737*%
%ADD98C,0.06800*%
%ADD99C,0.07099*%
%ADD100C,0.04900*%
D13*
X53508Y96500D02*
D03*
X69492D02*
D03*
X53508Y91500D02*
D03*
X69492D02*
D03*
X53508Y86500D02*
D03*
X69492D02*
D03*
X53508Y81500D02*
D03*
X69492D02*
D03*
X53508Y76500D02*
D03*
X69492D02*
D03*
D68*
X54437Y50937D02*
D03*
X52469D02*
D03*
X50500D02*
D03*
X48531D02*
D03*
X46563D02*
D03*
Y43063D02*
D03*
X48531D02*
D03*
X50500D02*
D03*
X52469D02*
D03*
X54437D02*
D03*
D69*
X50500Y47000D02*
D03*
D70*
X152016Y55341D02*
D03*
Y51571D02*
D03*
X61000Y50900D02*
D03*
Y47130D02*
D03*
X119000Y101600D02*
D03*
Y105370D02*
D03*
X246500Y34552D02*
D03*
Y38322D02*
D03*
X270800Y34363D02*
D03*
Y38134D02*
D03*
X295300Y34363D02*
D03*
Y38134D02*
D03*
X320000Y34363D02*
D03*
Y38134D02*
D03*
X319800Y77130D02*
D03*
Y80900D02*
D03*
X270535Y76774D02*
D03*
Y80544D02*
D03*
X295335Y77033D02*
D03*
Y80803D02*
D03*
X246635Y77170D02*
D03*
Y80940D02*
D03*
X162500Y93630D02*
D03*
Y97400D02*
D03*
X153500Y93600D02*
D03*
Y97370D02*
D03*
X154000Y77370D02*
D03*
Y73600D02*
D03*
X158000Y73610D02*
D03*
Y77400D02*
D03*
X165016Y42571D02*
D03*
Y46341D02*
D03*
Y65071D02*
D03*
Y68841D02*
D03*
X165516Y77811D02*
D03*
Y74041D02*
D03*
X132000Y45390D02*
D03*
Y41600D02*
D03*
X107000Y105370D02*
D03*
Y101600D02*
D03*
X165016Y57311D02*
D03*
Y53541D02*
D03*
X227007Y43104D02*
D03*
Y39334D02*
D03*
X295500Y24134D02*
D03*
Y20344D02*
D03*
Y10034D02*
D03*
Y13823D02*
D03*
X320000Y24134D02*
D03*
Y20344D02*
D03*
Y10034D02*
D03*
Y13823D02*
D03*
X271000Y24400D02*
D03*
Y20610D02*
D03*
X270800Y10034D02*
D03*
Y13823D02*
D03*
X246500Y28134D02*
D03*
Y24344D02*
D03*
Y15834D02*
D03*
Y19623D02*
D03*
X115000Y105370D02*
D03*
Y101600D02*
D03*
X194500Y23600D02*
D03*
Y27390D02*
D03*
Y35400D02*
D03*
Y31610D02*
D03*
X246500Y116100D02*
D03*
Y119890D02*
D03*
X295500Y115600D02*
D03*
Y119390D02*
D03*
X271000Y115600D02*
D03*
Y119390D02*
D03*
X320000Y115600D02*
D03*
Y119390D02*
D03*
D71*
X148500Y93600D02*
D03*
X81500Y81500D02*
D03*
X172500Y94500D02*
D03*
X82500Y52661D02*
D03*
X88500Y78000D02*
D03*
X94500Y70000D02*
D03*
X80500Y14500D02*
D03*
X114000Y25000D02*
D03*
X42500Y64500D02*
D03*
X25500Y44000D02*
D03*
X39500Y42000D02*
D03*
X49500Y9500D02*
D03*
D72*
X232610Y84000D02*
D03*
X236400D02*
D03*
X83400Y5000D02*
D03*
X79630D02*
D03*
X50610Y56500D02*
D03*
X54400D02*
D03*
X42610D02*
D03*
X46400D02*
D03*
X45610Y109000D02*
D03*
X49400D02*
D03*
X45610Y113000D02*
D03*
X49400D02*
D03*
X28130Y96500D02*
D03*
X31900D02*
D03*
X28110Y92500D02*
D03*
X31900D02*
D03*
X141370Y101000D02*
D03*
X137600D02*
D03*
X79110Y87000D02*
D03*
X82900D02*
D03*
X79110Y92000D02*
D03*
X82900D02*
D03*
X79110Y97500D02*
D03*
X82900D02*
D03*
X91630Y57000D02*
D03*
X95400D02*
D03*
X143870Y45000D02*
D03*
X140100D02*
D03*
X207870Y48734D02*
D03*
X204100D02*
D03*
X28110Y100500D02*
D03*
X31900D02*
D03*
X49400Y117000D02*
D03*
X45610D02*
D03*
D73*
X55358Y36000D02*
D03*
X62642D02*
D03*
X55358Y28000D02*
D03*
X62642D02*
D03*
D74*
X114303Y14500D02*
D03*
D75*
X89697Y5445D02*
D03*
Y14500D02*
D03*
Y23555D02*
D03*
D76*
X226736Y13484D02*
D03*
Y15983D02*
D03*
Y18484D02*
D03*
Y20983D02*
D03*
Y23483D02*
D03*
Y25984D02*
D03*
Y28484D02*
D03*
Y30984D02*
D03*
Y33484D02*
D03*
Y35984D02*
D03*
X205279Y13484D02*
D03*
Y15983D02*
D03*
Y18484D02*
D03*
Y20983D02*
D03*
Y23483D02*
D03*
Y25984D02*
D03*
Y28484D02*
D03*
Y30984D02*
D03*
Y33484D02*
D03*
Y35984D02*
D03*
D77*
X147457Y58177D02*
D03*
Y60146D02*
D03*
Y62114D02*
D03*
Y64083D02*
D03*
Y66051D02*
D03*
Y68020D02*
D03*
Y69988D02*
D03*
Y71957D02*
D03*
Y73925D02*
D03*
Y75894D02*
D03*
Y77862D02*
D03*
Y79831D02*
D03*
Y81799D02*
D03*
Y83768D02*
D03*
Y85736D02*
D03*
Y87705D02*
D03*
X102575D02*
D03*
Y85736D02*
D03*
Y83768D02*
D03*
Y81799D02*
D03*
Y79831D02*
D03*
Y77862D02*
D03*
Y75894D02*
D03*
Y73925D02*
D03*
Y71957D02*
D03*
Y69988D02*
D03*
Y68020D02*
D03*
Y66051D02*
D03*
Y64083D02*
D03*
Y62114D02*
D03*
Y60146D02*
D03*
Y58177D02*
D03*
D78*
X139780Y95382D02*
D03*
X137811D02*
D03*
X135843D02*
D03*
X133874D02*
D03*
X131906D02*
D03*
X129937D02*
D03*
X127969D02*
D03*
X126000D02*
D03*
X124031D02*
D03*
X122063D02*
D03*
X120095D02*
D03*
X118126D02*
D03*
X116157D02*
D03*
X114189D02*
D03*
X112221D02*
D03*
X110252D02*
D03*
Y50500D02*
D03*
X112221D02*
D03*
X114189D02*
D03*
X116157D02*
D03*
X118126D02*
D03*
X120095D02*
D03*
X122063D02*
D03*
X124031D02*
D03*
X126000D02*
D03*
X127969D02*
D03*
X129937D02*
D03*
X131906D02*
D03*
X133874D02*
D03*
X135843D02*
D03*
X137811D02*
D03*
X139780D02*
D03*
D79*
X242635Y61512D02*
D03*
Y63481D02*
D03*
Y65449D02*
D03*
Y67418D02*
D03*
X238304Y61512D02*
D03*
Y63481D02*
D03*
Y65449D02*
D03*
Y67418D02*
D03*
X239173Y17781D02*
D03*
Y19749D02*
D03*
Y21718D02*
D03*
Y23686D02*
D03*
X234842Y17781D02*
D03*
Y19749D02*
D03*
Y21718D02*
D03*
Y23686D02*
D03*
X239173Y4781D02*
D03*
Y6749D02*
D03*
Y8718D02*
D03*
Y10686D02*
D03*
X234842Y4781D02*
D03*
Y6749D02*
D03*
Y8718D02*
D03*
Y10686D02*
D03*
X242635Y52012D02*
D03*
Y53981D02*
D03*
Y55949D02*
D03*
Y57918D02*
D03*
X238304Y52012D02*
D03*
Y53981D02*
D03*
Y55949D02*
D03*
Y57918D02*
D03*
D80*
X72000Y18350D02*
D03*
Y24650D02*
D03*
D81*
X121000Y7823D02*
D03*
Y13177D02*
D03*
D82*
X62374Y9000D02*
D03*
X71626Y12602D02*
D03*
Y5398D02*
D03*
D83*
X50677Y28500D02*
D03*
X45322D02*
D03*
X30177Y128500D02*
D03*
X24823D02*
D03*
X45322Y35500D02*
D03*
X50677D02*
D03*
D84*
X24744Y123000D02*
D03*
X30256D02*
D03*
D85*
X158000Y97291D02*
D03*
Y93709D02*
D03*
D86*
X205080Y88707D02*
D03*
Y83707D02*
D03*
Y78707D02*
D03*
Y73707D02*
D03*
Y68707D02*
D03*
Y63707D02*
D03*
Y58707D02*
D03*
Y53707D02*
D03*
X226536Y88707D02*
D03*
Y83707D02*
D03*
Y78707D02*
D03*
Y73707D02*
D03*
Y68707D02*
D03*
Y63707D02*
D03*
Y58707D02*
D03*
Y53707D02*
D03*
D87*
X180240Y63567D02*
D03*
Y79315D02*
D03*
X170791D02*
D03*
Y63567D02*
D03*
D88*
X172516Y45020D02*
D03*
Y54862D02*
D03*
D89*
X191193Y94500D02*
D03*
X177807D02*
D03*
X169807Y7000D02*
D03*
X183193D02*
D03*
D90*
X30760Y115724D02*
D03*
X34500D02*
D03*
X38240D02*
D03*
Y106276D02*
D03*
X34500D02*
D03*
X30760D02*
D03*
D91*
X11500Y49500D02*
D03*
D92*
X8468Y106472D02*
D03*
Y115528D02*
D03*
D93*
X19000Y116118D02*
D03*
Y113559D02*
D03*
Y105882D02*
D03*
Y108441D02*
D03*
Y111000D02*
D03*
D94*
X85500Y64500D02*
D03*
X75500D02*
D03*
X95000Y44000D02*
D03*
Y34000D02*
D03*
X85000Y44000D02*
D03*
Y34000D02*
D03*
X75000Y44000D02*
D03*
X192000Y16500D02*
D03*
D95*
X65500Y64500D02*
D03*
X75000Y34000D02*
D03*
D96*
X192000Y6500D02*
D03*
D97*
X125016Y60736D02*
D03*
Y85146D02*
D03*
D98*
X330000Y82592D02*
D03*
Y58970D02*
D03*
Y74718D02*
D03*
Y66844D02*
D03*
X281000Y82592D02*
D03*
Y58970D02*
D03*
Y74718D02*
D03*
Y66844D02*
D03*
X256500Y38045D02*
D03*
Y14423D02*
D03*
Y30171D02*
D03*
Y22297D02*
D03*
X330000Y38045D02*
D03*
Y14423D02*
D03*
Y30171D02*
D03*
Y22297D02*
D03*
X281000Y38045D02*
D03*
Y14423D02*
D03*
Y30171D02*
D03*
Y22297D02*
D03*
X305500Y38045D02*
D03*
Y14423D02*
D03*
Y30171D02*
D03*
Y22297D02*
D03*
X25500Y75437D02*
D03*
Y67563D02*
D03*
Y31874D02*
D03*
Y24000D02*
D03*
Y16126D02*
D03*
X305500Y82592D02*
D03*
Y58970D02*
D03*
Y74718D02*
D03*
Y66844D02*
D03*
X256500Y82592D02*
D03*
Y58970D02*
D03*
Y74718D02*
D03*
Y66844D02*
D03*
X330000Y119374D02*
D03*
Y111500D02*
D03*
Y103626D02*
D03*
X256500D02*
D03*
Y111500D02*
D03*
Y119374D02*
D03*
X281000Y103626D02*
D03*
Y111500D02*
D03*
Y119374D02*
D03*
X305500Y103626D02*
D03*
Y111500D02*
D03*
Y119374D02*
D03*
D99*
X8468Y94563D02*
D03*
Y127437D02*
D03*
D100*
X20378Y119760D02*
D03*
Y102240D02*
D03*
M02*
