G04 Layer_Physical_Order=2*
G04 Layer_Color=16711680*
%FSLAX25Y25*%
%MOIN*%
G70*
G01*
G75*
%ADD12R,0.05906X0.05906*%
%ADD13C,0.05906*%
%ADD14C,0.05000*%
G36*
X62971Y2529D02*
X2529D01*
Y65471D01*
X62971D01*
Y2529D01*
D02*
G37*
%LPC*%
G36*
X8500Y24000D02*
X5536D01*
X5590Y23586D01*
X5943Y22735D01*
X6504Y22004D01*
X7235Y21443D01*
X8086Y21090D01*
X8500Y21036D01*
Y24000D01*
D02*
G37*
G36*
X58000Y23487D02*
X56968Y23351D01*
X56007Y22953D01*
X55181Y22319D01*
X54547Y21493D01*
X54149Y20532D01*
X54013Y19500D01*
X54149Y18468D01*
X54547Y17507D01*
X55181Y16681D01*
X56007Y16047D01*
X56968Y15649D01*
X58000Y15513D01*
X59032Y15649D01*
X59993Y16047D01*
X60819Y16681D01*
X61453Y17507D01*
X61851Y18468D01*
X61987Y19500D01*
X61851Y20532D01*
X61453Y21493D01*
X60819Y22319D01*
X59993Y22953D01*
X59032Y23351D01*
X58000Y23487D01*
D02*
G37*
G36*
X12464Y24000D02*
X9500D01*
Y21036D01*
X9914Y21090D01*
X10765Y21443D01*
X11496Y22004D01*
X12057Y22735D01*
X12410Y23586D01*
X12464Y24000D01*
D02*
G37*
G36*
X9500Y27964D02*
Y25000D01*
X12464D01*
X12410Y25414D01*
X12057Y26265D01*
X11496Y26996D01*
X10765Y27557D01*
X9914Y27910D01*
X9500Y27964D01*
D02*
G37*
G36*
X8500D02*
X8086Y27910D01*
X7235Y27557D01*
X6504Y26996D01*
X5943Y26265D01*
X5590Y25414D01*
X5536Y25000D01*
X8500D01*
Y27964D01*
D02*
G37*
G36*
X17500Y13500D02*
X14536D01*
X14590Y13086D01*
X14943Y12235D01*
X15504Y11504D01*
X16235Y10943D01*
X17086Y10590D01*
X17500Y10536D01*
Y13500D01*
D02*
G37*
G36*
X58000Y13487D02*
X56968Y13351D01*
X56007Y12953D01*
X55181Y12319D01*
X54547Y11493D01*
X54149Y10532D01*
X54013Y9500D01*
X54149Y8468D01*
X54547Y7507D01*
X55181Y6681D01*
X56007Y6047D01*
X56968Y5649D01*
X58000Y5513D01*
X59032Y5649D01*
X59993Y6047D01*
X60819Y6681D01*
X61453Y7507D01*
X61851Y8468D01*
X61987Y9500D01*
X61851Y10532D01*
X61453Y11493D01*
X60819Y12319D01*
X59993Y12953D01*
X59032Y13351D01*
X58000Y13487D01*
D02*
G37*
G36*
X21464Y13500D02*
X18500D01*
Y10536D01*
X18914Y10590D01*
X19765Y10943D01*
X20496Y11504D01*
X21057Y12235D01*
X21410Y13086D01*
X21464Y13500D01*
D02*
G37*
G36*
X18500Y17464D02*
Y14500D01*
X21464D01*
X21410Y14914D01*
X21057Y15765D01*
X20496Y16496D01*
X19765Y17057D01*
X18914Y17410D01*
X18500Y17464D01*
D02*
G37*
G36*
X17500D02*
X17086Y17410D01*
X16235Y17057D01*
X15504Y16496D01*
X14943Y15765D01*
X14590Y14914D01*
X14536Y14500D01*
X17500D01*
Y17464D01*
D02*
G37*
G36*
X57500Y43421D02*
X56968Y43351D01*
X56007Y42953D01*
X55181Y42319D01*
X54547Y41493D01*
X54149Y40532D01*
X54079Y40000D01*
X57500D01*
Y43421D01*
D02*
G37*
G36*
X61921Y39000D02*
X58500D01*
Y35579D01*
X59032Y35649D01*
X59993Y36047D01*
X60819Y36681D01*
X61453Y37507D01*
X61851Y38468D01*
X61921Y39000D01*
D02*
G37*
G36*
X58500Y43421D02*
Y40000D01*
X61921D01*
X61851Y40532D01*
X61453Y41493D01*
X60819Y42319D01*
X59993Y42953D01*
X59032Y43351D01*
X58500Y43421D01*
D02*
G37*
G36*
X61953Y63453D02*
X54047D01*
Y55547D01*
X61953D01*
Y63453D01*
D02*
G37*
G36*
X58000Y53487D02*
X56968Y53351D01*
X56007Y52953D01*
X55181Y52319D01*
X54547Y51493D01*
X54149Y50532D01*
X54013Y49500D01*
X54149Y48468D01*
X54547Y47507D01*
X55181Y46681D01*
X56007Y46047D01*
X56968Y45649D01*
X58000Y45513D01*
X59032Y45649D01*
X59993Y46047D01*
X60819Y46681D01*
X61453Y47507D01*
X61851Y48468D01*
X61987Y49500D01*
X61851Y50532D01*
X61453Y51493D01*
X60819Y52319D01*
X59993Y52953D01*
X59032Y53351D01*
X58000Y53487D01*
D02*
G37*
G36*
X57500Y39000D02*
X54079D01*
X54149Y38468D01*
X54547Y37507D01*
X55181Y36681D01*
X56007Y36047D01*
X56968Y35649D01*
X57500Y35579D01*
Y39000D01*
D02*
G37*
G36*
X8500Y34000D02*
X5536D01*
X5590Y33586D01*
X5943Y32735D01*
X6504Y32004D01*
X7235Y31443D01*
X8086Y31090D01*
X8500Y31036D01*
Y34000D01*
D02*
G37*
G36*
X58000Y33487D02*
X56968Y33351D01*
X56007Y32953D01*
X55181Y32319D01*
X54547Y31493D01*
X54149Y30532D01*
X54013Y29500D01*
X54149Y28468D01*
X54547Y27507D01*
X55181Y26681D01*
X56007Y26047D01*
X56968Y25649D01*
X58000Y25513D01*
X59032Y25649D01*
X59993Y26047D01*
X60819Y26681D01*
X61453Y27507D01*
X61851Y28468D01*
X61987Y29500D01*
X61851Y30532D01*
X61453Y31493D01*
X60819Y32319D01*
X59993Y32953D01*
X59032Y33351D01*
X58000Y33487D01*
D02*
G37*
G36*
X12464Y34000D02*
X9500D01*
Y31036D01*
X9914Y31090D01*
X10765Y31443D01*
X11496Y32004D01*
X12057Y32735D01*
X12410Y33586D01*
X12464Y34000D01*
D02*
G37*
G36*
X9500Y37964D02*
Y35000D01*
X12464D01*
X12410Y35414D01*
X12057Y36265D01*
X11496Y36996D01*
X10765Y37557D01*
X9914Y37910D01*
X9500Y37964D01*
D02*
G37*
G36*
X8500D02*
X8086Y37910D01*
X7235Y37557D01*
X6504Y36996D01*
X5943Y36265D01*
X5590Y35414D01*
X5536Y35000D01*
X8500D01*
Y37964D01*
D02*
G37*
%LPD*%
D12*
X58000Y59500D02*
D03*
D13*
Y49500D02*
D03*
Y39500D02*
D03*
Y29500D02*
D03*
Y19500D02*
D03*
Y9500D02*
D03*
D14*
X47000Y31500D02*
D03*
X18000Y14000D02*
D03*
X9000Y24500D02*
D03*
Y34500D02*
D03*
M02*
