G04 Layer_Physical_Order=1*
G04 Layer_Color=255*
%FSLAX25Y25*%
%MOIN*%
G70*
G01*
G75*
%ADD10R,0.11024X0.02953*%
%ADD11C,0.01000*%
%ADD12R,0.05906X0.05906*%
%ADD13C,0.05906*%
%ADD14C,0.05000*%
G36*
X54055Y49185D02*
X54149Y48468D01*
X54341Y48004D01*
X42366Y36029D01*
X40504D01*
Y36976D01*
X40504D01*
Y37024D01*
X40504D01*
Y37971D01*
X41500D01*
X42085Y38087D01*
X42581Y38419D01*
X53527Y49364D01*
X54055Y49185D01*
D02*
G37*
G36*
X44919Y23419D02*
X45415Y23087D01*
X46000Y22971D01*
X55208D01*
X55378Y22471D01*
X55181Y22319D01*
X54547Y21493D01*
X54355Y21029D01*
X40857D01*
X40504Y21383D01*
X40504Y21976D01*
X40504Y22476D01*
X40504Y27180D01*
X40966Y27371D01*
X44919Y23419D01*
D02*
G37*
G36*
X54047Y55547D02*
X54739D01*
X54891Y55047D01*
X54871Y55034D01*
X41004Y41167D01*
X40504Y41361D01*
Y41976D01*
X29793D01*
X29601Y42438D01*
X45134Y57971D01*
X54047D01*
Y55547D01*
D02*
G37*
G36*
X62971Y53643D02*
X62509Y53451D01*
X60926Y55034D01*
X60906Y55047D01*
X61058Y55547D01*
X61953D01*
Y63453D01*
X54047D01*
Y61029D01*
X44500D01*
X43915Y60913D01*
X43419Y60581D01*
X24972Y42134D01*
X24520Y41976D01*
Y41976D01*
X24520Y41976D01*
X11496D01*
Y37626D01*
X10996Y37380D01*
X10765Y37557D01*
X9914Y37910D01*
X9500Y37964D01*
Y34500D01*
Y31036D01*
X9914Y31090D01*
X10765Y31443D01*
X10996Y31620D01*
X11496Y31374D01*
Y27626D01*
X10996Y27380D01*
X10765Y27557D01*
X9914Y27910D01*
X9500Y27964D01*
Y24500D01*
Y21036D01*
X9914Y21090D01*
X10765Y21443D01*
X10996Y21620D01*
X11496Y21373D01*
Y20000D01*
X18008D01*
X24520D01*
Y21524D01*
X24520Y21976D01*
X24520Y22476D01*
Y24000D01*
X18008D01*
Y25000D01*
X24520D01*
Y26524D01*
X24520Y26976D01*
X24520Y27476D01*
Y31524D01*
X24520Y31976D01*
X24520Y32476D01*
Y34000D01*
X18008D01*
Y35000D01*
X24520D01*
Y36524D01*
X24520Y36976D01*
X24520Y37476D01*
Y37975D01*
X25085Y38087D01*
X25581Y38419D01*
X27018Y39855D01*
X27480Y39664D01*
Y37024D01*
X27480D01*
Y36976D01*
X27480D01*
Y32024D01*
X27480D01*
Y31976D01*
X27480D01*
Y27476D01*
X27480Y27024D01*
X27480Y26524D01*
Y22476D01*
X27480Y22024D01*
X27480Y21524D01*
Y17024D01*
X40504D01*
Y17971D01*
X54355D01*
X54547Y17507D01*
X55181Y16681D01*
X56007Y16047D01*
X56968Y15649D01*
X58000Y15513D01*
X59032Y15649D01*
X59993Y16047D01*
X60423Y16377D01*
X60923Y16131D01*
Y14586D01*
X59496Y13159D01*
X59032Y13351D01*
X58000Y13487D01*
X56968Y13351D01*
X56007Y12953D01*
X55181Y12319D01*
X54547Y11493D01*
X54149Y10532D01*
X54013Y9500D01*
X54149Y8468D01*
X54547Y7507D01*
X55181Y6681D01*
X56007Y6047D01*
X56968Y5649D01*
X58000Y5513D01*
X59032Y5649D01*
X59993Y6047D01*
X60819Y6681D01*
X61453Y7507D01*
X61851Y8468D01*
X61987Y9500D01*
X61851Y10532D01*
X61659Y10996D01*
X62509Y11846D01*
X62971Y11654D01*
Y2529D01*
X2529D01*
Y65471D01*
X62971D01*
Y53643D01*
D02*
G37*
G36*
X60971Y46167D02*
Y42833D01*
X60471Y42587D01*
X59993Y42953D01*
X59032Y43351D01*
X58500Y43421D01*
Y39500D01*
Y35579D01*
X59032Y35649D01*
X59993Y36047D01*
X60471Y36413D01*
X60971Y36167D01*
Y34633D01*
X59496Y33159D01*
X59032Y33351D01*
X58000Y33487D01*
X56968Y33351D01*
X56007Y32953D01*
X55181Y32319D01*
X54547Y31493D01*
X54149Y30532D01*
X54013Y29500D01*
X54149Y28468D01*
X54547Y27507D01*
X55181Y26681D01*
X55378Y26529D01*
X55208Y26029D01*
X46633D01*
X42081Y30581D01*
X41585Y30913D01*
X41000Y31029D01*
X40504D01*
Y31976D01*
X40504D01*
Y32024D01*
X40504D01*
Y32971D01*
X43000D01*
X43585Y33087D01*
X44081Y33419D01*
X56504Y45841D01*
X56968Y45649D01*
X58000Y45513D01*
X59032Y45649D01*
X59993Y46047D01*
X60471Y46413D01*
X60971Y46167D01*
D02*
G37*
%LPC*%
G36*
X8500Y24000D02*
X5536D01*
X5590Y23586D01*
X5943Y22735D01*
X6504Y22004D01*
X7235Y21443D01*
X8086Y21090D01*
X8500Y21036D01*
Y24000D01*
D02*
G37*
G36*
X24520Y19000D02*
X18008D01*
X11496D01*
Y17024D01*
X15413D01*
X15574Y16550D01*
X15504Y16496D01*
X14943Y15765D01*
X14590Y14914D01*
X14536Y14500D01*
X21464D01*
X21410Y14914D01*
X21057Y15765D01*
X20496Y16496D01*
X20426Y16550D01*
X20587Y17024D01*
X24520D01*
Y19000D01*
D02*
G37*
G36*
X17500Y13500D02*
X14536D01*
X14590Y13086D01*
X14943Y12235D01*
X15504Y11504D01*
X16235Y10943D01*
X17086Y10590D01*
X17500Y10536D01*
Y13500D01*
D02*
G37*
G36*
X21464D02*
X18500D01*
Y10536D01*
X18914Y10590D01*
X19765Y10943D01*
X20496Y11504D01*
X21057Y12235D01*
X21410Y13086D01*
X21464Y13500D01*
D02*
G37*
G36*
X8500Y37964D02*
X8086Y37910D01*
X7235Y37557D01*
X6504Y36996D01*
X5943Y36265D01*
X5590Y35414D01*
X5536Y35000D01*
X8500D01*
Y37964D01*
D02*
G37*
G36*
Y27964D02*
X8086Y27910D01*
X7235Y27557D01*
X6504Y26996D01*
X5943Y26265D01*
X5590Y25414D01*
X5536Y25000D01*
X8500D01*
Y27964D01*
D02*
G37*
G36*
Y34000D02*
X5536D01*
X5590Y33586D01*
X5943Y32735D01*
X6504Y32004D01*
X7235Y31443D01*
X8086Y31090D01*
X8500Y31036D01*
Y34000D01*
D02*
G37*
G36*
X57500Y39000D02*
X54079D01*
X54149Y38468D01*
X54547Y37507D01*
X55181Y36681D01*
X56007Y36047D01*
X56968Y35649D01*
X57500Y35579D01*
Y39000D01*
D02*
G37*
G36*
Y43421D02*
X56968Y43351D01*
X56007Y42953D01*
X55181Y42319D01*
X54547Y41493D01*
X54149Y40532D01*
X54079Y40000D01*
X57500D01*
Y43421D01*
D02*
G37*
%LPD*%
D10*
X18008Y39500D02*
D03*
X33992D02*
D03*
X18008Y34500D02*
D03*
X33992D02*
D03*
X18008Y29500D02*
D03*
X33992D02*
D03*
X18008Y24500D02*
D03*
X33992D02*
D03*
X18008Y19500D02*
D03*
X33992D02*
D03*
D11*
X18000Y19492D02*
X18008Y19500D01*
X18000Y14000D02*
Y19492D01*
X9000Y24500D02*
X18008D01*
X9000Y34500D02*
X18008D01*
X44500Y59500D02*
X58000D01*
X24500Y39500D02*
X44500Y59500D01*
X18008Y39500D02*
X24500D01*
X60000Y24500D02*
X62453Y22047D01*
X46000Y24500D02*
X60000D01*
X41000Y29500D02*
X46000Y24500D01*
X58000Y9500D02*
X62453Y13953D01*
Y22047D01*
X62500Y34000D02*
Y51297D01*
X58000Y29500D02*
X62500Y34000D01*
X59844Y53953D02*
X62500Y51297D01*
X41500Y39500D02*
X55953Y53953D01*
X59844D01*
X33992Y39500D02*
X41500D01*
X43000Y34500D02*
X58000Y49500D01*
X33992Y34500D02*
X43000D01*
X33992Y29500D02*
X41000D01*
X33992Y19500D02*
X58000D01*
D12*
Y59500D02*
D03*
D13*
Y49500D02*
D03*
Y39500D02*
D03*
Y29500D02*
D03*
Y19500D02*
D03*
Y9500D02*
D03*
D14*
X47000Y31500D02*
D03*
X18000Y14000D02*
D03*
X9000Y24500D02*
D03*
Y34500D02*
D03*
M02*
